<svg width="365" height="507" viewBox="0 0 365 507" fill="none" xmlns="http://www.w3.org/2000/svg">
<path fill-rule="evenodd" clip-rule="evenodd" d="M256.973 120.132C256.746 125.822 256.087 130.863 255.405 136.077L255.294 136.93C254.575 142.448 253.376 147.966 252.177 153.484L252.176 153.488C249.777 164.526 246.659 175.325 242.341 186.124L240.662 190.203L240.182 191.163L239.943 191.643C239.943 191.742 239.902 191.801 239.853 191.869C239.785 191.965 239.703 192.082 239.703 192.363C239.223 193.563 238.504 194.763 237.304 195.962C236.345 197.162 234.906 198.122 233.467 199.082L233.466 199.082C232.027 199.802 230.348 200.282 228.909 200.522C226.031 200.762 223.632 200.282 221.713 199.802C217.875 198.602 215.237 196.922 212.598 195.003C209.96 193.323 207.802 191.404 205.643 189.484L205.642 189.483C197.172 181.716 190.318 173.487 183.947 164.569C179.155 162.865 175.179 158.767 175.179 158.767L180.654 141.62L175.179 158.527L162.946 151.088L166.544 136.45L180.696 141.489L180.696 141.49L190.29 156.607L190.235 158.532L190.531 158.287C192.45 160.087 194.428 161.887 196.407 163.687C198.386 165.486 200.365 167.286 202.284 169.086C206.361 172.685 210.438 175.804 214.516 178.924L214.516 178.924L214.517 178.925C215.143 179.342 215.748 179.759 216.345 180.17L216.345 180.17L216.345 180.171C217.808 181.179 219.22 182.152 220.754 183.004C222.433 184.055 224.297 184.737 225.701 185.213L226.031 184.444L227.47 180.844C230.828 171.246 233.466 161.167 235.385 150.848C235.901 148.141 236.347 145.364 236.798 142.556C237.187 140.136 237.58 137.693 238.024 135.25C238.743 130.211 239.463 124.692 239.703 119.892L256.973 120.132ZM226.658 185.498C227.069 185.554 227.18 185.404 226.99 185.404C226.924 185.404 226.803 185.44 226.658 185.498Z" fill="url(#paint0_linear)"/>
<path d="M248.202 97.9842C241.006 99.904 235.729 129.9 235.729 129.9L255.877 143.578C255.877 143.578 275.066 113.342 269.55 105.183C263.553 96.7844 258.756 95.1046 248.202 97.9842Z" fill="#FFEDBA"/>
<path opacity="0.3" d="M248.682 104.703L243.165 134.939L254.439 142.618L248.682 104.703Z" fill="#ED6B57"/>
<path d="M290.045 477.976H266.341L265.06 437.783H288.443L290.045 477.976Z" fill="#FFC3BD"/>
<path d="M266.088 475.804H290.031C290.897 475.804 291.474 476.398 291.762 477.291L294.358 496.922C294.647 499.004 292.916 500.789 290.897 500.789C282.531 500.789 278.492 500.194 268.108 500.194C261.761 500.194 248.203 500.789 239.261 500.789C230.607 500.789 229.741 491.568 233.491 490.973C250.223 487.404 256.857 482.05 262.338 477.291C263.492 476.398 264.934 475.804 266.088 475.804Z" fill="#14365B"/>
<path d="M265.06 438.869L265.689 454.077H288.958L288.015 438.869H265.06Z" fill="#F29994"/>
<path d="M262.886 447.855C262.886 447.855 248.877 323.791 247.678 267.638C247.289 249.448 249.739 224.187 252.023 206.942H290.044L287.541 267.638C285.382 322.831 290.044 447.855 290.044 447.855H262.886Z" fill="url(#paint1_linear)"/>
<path d="M253.135 97.4666C253.135 97.4666 250.079 107.156 249.333 115.647C248.511 125.008 239.531 141.763 244.74 151.54C256.912 167.292 250.847 191.369 253.135 205.561C281.679 205.561 311.182 205.561 325.095 205.561C323.895 176.285 323.895 158.287 337.807 98.0549C337.807 98.0549 322.696 94.6954 307.345 93.9755C295.351 93.4956 285.277 93.0156 274.723 93.9755C260.571 95.1754 253.135 97.4666 253.135 97.4666Z" fill="#FFEDBA"/>
<path d="M303.987 57.0202C301.828 67.5789 299.909 86.7764 307.105 93.7355C307.105 93.7355 304.226 104.294 284.797 104.294C263.21 104.294 274.483 93.7355 274.483 93.7355C286.237 90.8559 285.997 82.217 283.838 74.058L303.987 57.0202Z" fill="url(#paint2_linear)"/>
<path d="M295.831 63.9793L284.078 74.058C284.558 75.9778 285.037 77.8976 285.037 79.8173C289.595 79.0974 295.592 74.298 296.071 69.4986C296.311 67.3388 296.311 65.1791 295.831 63.9793Z" fill="#F29994"/>
<path d="M267.413 48.3699C259.716 36.8235 262.144 26.1477 267.413 20.1912H288.032C288.719 29.355 290.094 48.6448 290.094 52.4936C290.094 56.3424 309.796 49.7444 307.963 53.8681C303.381 52.9518 275.111 59.9162 267.413 48.3699Z" fill="#0F264C"/>
<path d="M315.021 37.8226C310.943 54.8605 309.504 62.2995 299.19 69.4986C283.599 80.5372 263.69 71.6583 262.491 53.6606C261.531 37.5826 268.487 12.1458 286.477 8.30629C304.707 4.70674 319.339 20.7848 315.021 37.8226Z" fill="url(#paint3_linear)"/>
<path d="M294.025 449.732H260.067L257.455 438.921L295.476 437.783L294.025 449.732Z" fill="#4B2A2A"/>
<path d="M284.079 239.397C276.105 255.352 278.976 280.522 280.268 301.994C281.853 328.319 283.282 350.724 286.717 363.941C289.835 327.706 295.352 283.311 299.43 250.915C297.031 232.438 292.234 223.079 284.079 239.397Z" fill="#EE4D47" fill-opacity="0.29" style="mix-blend-mode:multiply"/>
<path d="M356.853 445.387L334.041 353.051V262.344L327.318 207.485H286.581C281.801 237.902 292.399 321.186 300.908 364.457L327.318 445.387H356.853Z" fill="url(#paint4_linear)"/>
<path d="M340.015 478.519L333.497 452.448H356.31L360.112 478.519H340.015Z" fill="#FFC3BD"/>
<path d="M331.383 489.808L339.227 477.976H359.957C362.519 479.511 363.684 489.115 364.442 495.562C364.737 498.071 363.175 500.474 360.746 501.171L343.149 506.22H317.691C315.633 506.22 313.976 504.531 314.015 502.474C314.015 495.124 326.126 490.421 331.383 489.808Z" fill="#14365B"/>
<path fill-rule="evenodd" clip-rule="evenodd" d="M356.864 456.25L356.31 452.448H333.497L334.448 456.25H356.864Z" fill="#F29994"/>
<path d="M361.376 452.991H327.419L324.807 442.18L362.827 441.042L361.376 452.991Z" fill="#4B2A2A"/>
<circle r="20.6185" transform="matrix(1 0 0 -1 325.146 33.2496)" fill="#0F264C"/>
<path d="M287.965 37.8015C288.219 36.3659 287.685 35.0711 286.772 34.9093C285.859 34.7475 284.913 35.78 284.658 37.2156C284.404 38.6511 284.938 39.9461 285.852 40.1079C286.765 40.2696 287.711 39.237 287.965 37.8015Z" fill="#0F264C"/>
<path d="M272.084 35.183C271.844 36.6228 270.885 37.5827 269.925 37.3427C268.966 37.1027 268.486 35.9028 268.726 34.463C268.966 33.0232 269.926 32.0633 270.885 32.3033C271.844 32.5432 272.324 33.7431 272.084 35.183Z" fill="#0F264C"/>
<path d="M271.365 32.5433L268.247 30.8635C268.007 30.8635 269.446 33.7431 271.365 32.5433Z" fill="#0F264C"/>
<path d="M275.922 38.3025C275.922 38.3025 272.564 43.8218 269.206 46.4614C270.645 48.6212 274.003 48.3812 274.003 48.3812L275.922 38.3025Z" fill="#ED847E"/>
<path d="M282.124 56.4881C281.065 56.4881 280.006 56.4882 278.594 56.1433C278.241 56.1433 277.888 55.7984 278.241 55.4536C278.241 55.1087 278.594 54.7638 278.947 55.1087C288.124 56.833 293.419 51.3152 293.419 51.3152C293.772 50.9703 294.125 50.9703 294.125 51.3152C294.478 51.66 294.478 52.0049 294.125 52.0049C294.125 52.0049 289.889 56.4881 282.124 56.4881Z" fill="#0F264C"/>
<path d="M324.39 22.5756C332.384 41.6313 315.964 51.3772 306.754 53.8681L315.572 36.5872L313.808 27.2461C305.775 22.2642 291.823 12.1136 300.288 11.3663C310.869 10.4322 321.45 15.5698 324.39 22.5756Z" fill="#D3D86C"/>
<path d="M287.436 7.10654C279.52 11.666 298.949 54.6205 313.341 48.6213C327.733 42.622 322.936 18.6251 315.98 12.6259C308.784 6.38668 298.469 0.627372 287.436 7.10654Z" fill="#0F264C"/>
<path d="M321.708 22.2531C331.055 50.2943 311.857 64.6356 301.09 68.3011L311.399 42.8716L309.337 29.1259C299.944 21.7949 283.633 6.85793 293.529 5.75828C305.901 4.38371 318.272 11.9438 321.708 22.2531Z" fill="#0F264C"/>
<path d="M282.879 4.9468C282.879 4.9468 273.284 6.38662 267.048 18.1451C260.571 30.1436 297.271 6.62659 291.993 4.9468C286.956 3.26701 282.879 4.9468 282.879 4.9468Z" fill="#0F264C"/>
<path d="M315.741 50.7809C314.301 54.1405 311.663 56.5402 308.785 57.74C304.707 59.4198 302.068 55.8203 302.788 51.5008C303.508 47.6613 306.386 42.382 310.943 42.382C315.261 42.382 317.42 46.7015 315.741 50.7809Z" fill="url(#paint5_linear)"/>
<path fill-rule="evenodd" clip-rule="evenodd" d="M345.482 116.773C349.56 126.371 352.678 135.97 355.557 145.809C358.435 155.648 360.834 165.726 362.033 176.285C362.273 178.925 362.513 181.564 362.753 184.444V186.604C362.753 186.638 362.757 186.707 362.764 186.805C362.806 187.392 362.924 189.038 362.513 190.683C362.273 191.643 361.793 192.843 361.074 193.803C360.354 195.003 359.395 195.963 358.435 196.682C356.276 198.122 354.357 198.602 352.918 198.842C351.924 199.008 351.045 198.945 350.28 198.89H350.28C349.937 198.865 349.617 198.842 349.32 198.842C348.87 198.73 348.42 198.67 347.995 198.613L347.995 198.613C347.514 198.549 347.064 198.49 346.682 198.362C345.003 197.882 343.563 197.402 342.364 196.922C339.726 195.723 337.327 194.523 334.928 193.323C325.813 188.044 317.658 182.044 309.983 175.325L310.104 175.146C306.843 173.487 304.265 170.384 302.833 168.367L291.753 156.128L298.949 142.689L311.182 151.088L311.182 151.089L317.037 168.897L318.26 169.511L318.26 169.511C325.864 173.328 333.606 177.214 341.165 180.365C342.672 181.035 344.18 181.588 345.606 182.024C345.467 181.134 345.337 180.251 345.243 179.405C344.523 174.846 343.324 170.288 342.125 165.73L342.124 165.726C341.525 163.447 340.865 161.107 340.205 158.767L340.205 158.767C339.546 156.428 338.886 154.088 338.286 151.808C335.408 142.689 332.05 133.33 328.692 124.452L345.482 116.773Z" fill="#FFC3BD"/>
<path d="M292.473 28.7038C292.233 28.7038 291.993 28.7038 291.753 28.4638C289.115 25.8241 286.236 26.304 285.997 26.304C285.517 26.304 285.037 26.0641 285.037 25.5841C285.037 25.1042 285.277 24.6243 285.757 24.6243C285.997 24.6243 289.834 23.9043 292.953 27.2639C293.192 27.5039 293.192 28.2238 292.953 28.4638C292.713 28.7038 292.713 28.7038 292.473 28.7038Z" fill="#0F264C"/>
<path d="M266.328 26.544C266.088 26.544 265.848 26.544 265.848 26.304C265.608 26.064 265.608 25.3441 265.848 25.1042C268.966 21.7446 272.804 22.4645 273.044 22.4645C273.524 22.4645 273.763 22.9445 273.763 23.4244C273.763 23.9044 273.284 24.1443 272.804 24.1443C272.564 24.1443 269.686 23.6644 267.047 26.304C266.807 26.544 266.567 26.544 266.328 26.544Z" fill="#0F264C"/>
<path d="M337.807 97.815C345.003 99.9747 353.639 124.932 353.639 124.932L325.574 144.849C325.574 144.849 315.26 124.212 318.378 114.853C321.736 105.254 329.652 95.4153 337.807 97.815Z" fill="#FFEDBA"/>
<path d="M254.432 477.976C251.457 477.976 248.481 477.542 246.781 475.805C245.931 474.937 245.506 473.634 245.506 471.897C245.506 471.029 245.931 470.16 246.781 469.726C250.607 467.555 262.934 474.068 264.634 474.937C265.06 474.937 265.059 475.371 265.059 475.805C265.059 476.239 264.634 476.239 264.634 476.239C261.659 477.542 257.833 477.976 254.432 477.976ZM248.906 471.463C248.481 471.463 248.056 471.463 247.631 471.897C247.206 471.897 247.206 472.332 247.206 472.766C247.206 473.634 247.206 474.502 248.056 475.371C249.757 477.108 255.283 477.542 262.084 476.239C257.408 473.634 251.882 471.463 248.906 471.463Z" fill="#9FC6FF"/>
<path d="M264.206 476.89C259.945 475.31 252.701 468.989 253.127 465.829C253.127 465.039 253.98 464.249 256.11 463.854C257.815 463.854 259.093 464.249 260.372 465.039C264.207 468.199 265.059 476.1 265.059 476.1C265.059 476.495 265.059 476.495 264.633 476.89H264.206ZM256.536 465.039H256.11C254.832 465.039 254.832 465.829 254.832 465.829C254.406 467.804 259.519 472.94 263.354 474.915C262.928 472.545 262.076 467.804 259.519 465.829C258.667 465.434 257.815 465.039 256.536 465.039Z" fill="#9FC6FF"/>
<path d="M334.406 481.141C332.074 479.427 329.992 477.374 329.66 475.033C329.494 473.863 329.911 472.597 330.911 471.236C331.411 470.556 332.244 470.12 333.161 470.269C337.409 470.771 343.319 482.974 344.152 484.634C344.485 484.879 344.235 485.219 343.985 485.559C343.735 485.9 343.402 485.655 343.402 485.655C340.32 484.962 337.071 483.099 334.406 481.141ZM333.826 472.854C333.493 472.61 333.16 472.365 332.577 472.46C332.244 472.215 331.993 472.556 331.743 472.896C331.243 473.577 330.743 474.257 330.91 475.427C331.242 477.768 335.323 481.29 341.403 484.186C339.239 479.452 336.158 474.568 333.826 472.854Z" fill="#9FC6FF"/>
<path d="M342.692 485.919C340.262 482.226 338.225 473.101 340.379 470.87C340.834 470.251 341.957 470.123 343.854 471.04C345.19 472.022 345.964 473.067 346.511 474.423C347.697 479.108 343.815 485.79 343.815 485.79C343.587 486.1 343.587 486.1 343.026 486.164L342.692 485.919ZM343.505 472.214L343.171 471.969C342.169 471.233 341.714 471.852 341.714 471.852C340.243 473.154 341.293 480.123 343.161 483.88C344.192 481.777 346.254 477.571 345.388 474.551C344.948 473.751 344.507 472.95 343.505 472.214Z" fill="#9FC6FF"/>
<path d="M326.054 201.242L327.973 207.721C328.213 208.201 327.733 208.681 326.773 208.681H252.655C251.936 208.681 251.456 208.441 251.456 207.961L250.736 201.482C250.736 201.002 251.216 200.762 251.936 200.762H324.855C325.574 200.522 326.054 200.762 326.054 201.242Z" fill="#F18069"/>
<path d="M316.459 209.401H318.378C318.858 209.401 319.098 209.161 319.098 208.921L318.138 200.522C318.138 200.282 317.659 200.042 317.419 200.042H315.5C315.02 200.042 314.78 200.282 314.78 200.522L315.74 208.921C315.74 209.161 315.98 209.401 316.459 209.401Z" fill="#6A2828"/>
<path d="M258.173 209.401H260.092C260.572 209.401 260.812 209.161 260.812 208.921L259.852 200.522C259.852 200.282 259.372 200.042 259.133 200.042H257.214C256.734 200.042 256.494 200.282 256.494 200.522L257.453 208.921C257.453 209.161 257.933 209.401 258.173 209.401Z" fill="#6A2828"/>
<path d="M287.196 209.401H289.115C289.594 209.401 289.834 209.161 289.834 208.921L288.875 200.522C288.875 200.282 288.395 200.042 288.155 200.042H286.236C285.756 200.042 285.517 200.282 285.517 200.522L286.476 208.921C286.476 209.161 286.956 209.401 287.196 209.401Z" fill="#6A2828"/>
<path d="M287.196 35.1829L284.078 33.503C284.078 33.743 285.277 36.6228 287.196 35.1829Z" fill="#0F264C"/>
<path d="M119.379 33.326H101.274L98.8223 22.3829C98.8223 22.3829 105.989 26.5338 107.686 23.7037C109.383 20.8736 109.006 22.0056 110.704 22.3829C112.401 22.7603 112.401 20.4962 114.475 21.8169C116.739 23.3263 120.133 30.4959 119.379 33.326Z" fill="#6B1912"/>
<path d="M100.709 482.938L122.963 481.051L121.831 453.505L99.3887 455.58L100.709 482.938Z" fill="#D88D6C"/>
<path d="M142.199 479.165C142.199 479.165 127.489 472.372 125.037 467.467C125.037 467.467 120.699 451.618 114.099 459.92C114.099 459.92 107.309 465.391 97.6911 461.052L96.5596 491.051L163.133 490.862C161.435 486.334 159.927 481.24 142.199 479.165Z" fill="url(#paint6_linear)"/>
<path d="M96.5598 491.24L96.1826 495.957L163.321 495.768C163.321 493.881 163.887 492.938 162.944 491.051L96.5598 491.24Z" fill="#C73E39"/>
<path d="M3.20605 479.165L25.4601 482.938L31.3064 456.146L9.24106 452.373L3.20605 479.165Z" fill="#D88D6C"/>
<path d="M46.0161 479.165C46.0161 479.165 31.3059 472.372 28.8542 467.467C28.8542 467.467 32.2489 455.014 24.328 461.24C24.328 461.24 10.7494 466.335 5.09163 460.108L0.56543 491.24L67.1384 491.051C65.0639 486.334 63.5552 481.24 46.0161 479.165Z" fill="url(#paint7_linear)"/>
<path d="M0.37715 491.24L0 495.957L67.1388 495.768C67.1388 493.881 67.7046 492.938 66.7617 491.051L0.37715 491.24Z" fill="#C73E39"/>
<path d="M126.734 223.322C126.734 223.322 130.695 336.715 127.111 465.58C127.111 465.58 116.362 475.768 95.9936 468.976C95.9936 468.976 96.1821 325.583 90.7129 268.604C90.7129 268.604 65.0644 376.903 32.6265 470.674C32.6265 470.674 10.9383 474.825 3.20605 462.561C3.20605 462.561 46.9595 310.678 53.3717 223.322H126.734Z" fill="url(#paint8_linear)"/>
<path d="M126.734 223.322H53.3714C52.8056 229.925 52.2398 236.906 51.2969 244.076C95.0503 244.265 118.247 233.133 126.922 228.038C126.922 224.831 126.734 223.322 126.734 223.322Z" fill="#402B2B" fill-opacity="0.45" style="mix-blend-mode:multiply"/>
<path d="M166.716 144.456C146.537 108.796 130.695 96.7208 130.695 96.7208C122.02 101.626 128.62 135.21 128.62 135.21C134.09 145.965 137.861 155.587 145.971 165.021L166.716 144.456Z" fill="#D1402C"/>
<path d="M130.694 96.7208C130.694 96.7208 129.751 118.418 126.923 222.756C126.923 222.756 101.274 235.774 50.1654 226.718C50.1654 226.718 49.9768 195.398 42.9989 167.663C42.9989 167.663 29.986 115.4 36.5868 100.117C36.5868 100.117 78.2657 74.2685 130.694 96.7208Z" fill="url(#paint9_linear)"/>
<path d="M91.0901 76.0417L91.4673 89.5512C91.4673 89.5512 88.2612 94.268 80.529 94.834C72.7967 95.2114 69.0249 90.8718 69.0249 90.8718L68.2705 70.7588C77.8887 74.9096 87.3183 76.6077 91.0901 76.0417Z" fill="url(#paint10_linear)"/>
<path d="M90.3361 70.495L91.0904 85.4003C87.3186 85.9664 77.8889 84.2683 68.4593 80.1175L67.8936 70.495H90.3361V70.495Z" fill="url(#paint11_linear)" style="mix-blend-mode:multiply"/>
<path d="M39.2275 129.55C39.2275 129.55 50.3544 154.644 54.3148 165.965C58.2753 177.096 58.2753 221.435 79.0205 229.925C79.0205 229.925 56.9552 228.605 49.9772 226.718C49.9772 226.718 49.6 193.322 42.8107 167.663C42.8107 167.663 38.0959 140.682 36.21 128.418L39.2275 129.55Z" fill="#EE4D47" fill-opacity="0.29" style="mix-blend-mode:multiply"/>
<path d="M53.9375 37.6656C54.3147 37.8543 54.6919 43.8919 54.6919 43.8919L56.2006 56.5331L63.1786 62.0046L67.139 63.7027C67.139 63.7027 72.9854 61.2499 72.231 58.9858C71.4766 56.9104 67.7048 27.0999 66.9504 27.0999C66.1961 27.0999 60.1611 31.4393 60.1611 31.4393L53.9375 37.6656Z" fill="#402B2B"/>
<path d="M109.195 26.3451C110.892 26.3451 108.252 47.0994 108.252 47.0994L105.235 38.7977L103.16 28.7979L109.195 26.3451Z" fill="#402B2B"/>
<path d="M106.366 30.496L109.572 57.0991C109.572 57.0991 110.704 79.5514 92.2219 80.8721C73.7399 82.0042 61.1042 63.7027 61.1042 63.7027C61.1042 63.7027 58.8411 66.3442 56.3894 61.816C54.1263 57.2878 55.635 51.2502 58.8411 50.6842C62.2357 50.3068 63.7445 52.1936 64.1217 55.0237C64.4989 57.8538 64.8761 59.9292 64.8761 59.9292L67.7049 59.5519L65.6304 37.6656C65.6304 37.6656 69.968 29.1753 74.8714 27.4772C79.7748 25.7791 84.1124 32.5714 84.1124 32.5714C84.1124 32.5714 88.6387 33.5148 92.9763 32.5714C97.3139 31.628 100.143 30.496 100.143 30.496C100.143 30.496 102.783 31.2507 106.366 30.496Z" fill="url(#paint12_linear)"/>
<path d="M92.976 70.6837C86.7525 71.0611 85.8096 63.8915 85.8096 63.8915C85.8096 63.8915 100.142 62.1934 100.52 62.0047C100.52 62.0047 101.651 70.1177 92.976 70.6837Z" fill="#893D43"/>
<path d="M86.3755 66.1556C85.8097 64.8348 85.6211 63.8914 85.6211 63.8914C85.6211 63.8914 99.9541 62.1934 100.331 62.0047C100.331 62.0047 100.52 62.9481 100.331 64.4574L86.3755 66.1556Z" fill="#FFFEFF"/>
<path d="M86.9419 23.7037V4.45882C75.4378 5.02484 63.5565 7.28892 57.7101 14.4586C50.7322 22.9489 54.6927 42.5711 54.6927 42.5711C54.6927 42.5711 63.1793 41.6278 64.688 38.7977C66.1968 35.9675 80.5298 32.0053 91.4682 32.5713C102.407 33.1374 107.687 32.0053 113.156 27.2885C114.288 26.3451 115.231 25.0244 115.985 23.515H86.9419V23.7037Z" fill="#402B2B"/>
<path d="M53.3716 35.4015C53.3716 35.4015 61.4811 32.76 75.0597 31.628C97.8794 22.0055 107.686 23.7037 107.686 23.7037C107.686 23.7037 107.498 16.3453 105.423 11.2511C103.349 6.15688 89.3927 -1.01275 77.7 0.119297C66.0073 1.25135 53.9373 9.93034 52.0514 18.232C50.5427 24.647 53.3716 35.4015 53.3716 35.4015Z" fill="url(#paint13_linear)"/>
<path d="M67.1387 32.5714C69.5904 20.8735 87.1295 15.0246 99.5766 15.2133C111.835 15.402 120.51 25.5904 121.83 32.5714C122.396 35.4015 120.133 35.7788 119.379 33.326C118.813 31.628 117.681 23.515 106.366 24.4584C95.0504 25.4017 95.6161 35.5902 89.9584 36.5335C84.6778 37.4769 78.6428 33.7034 67.1387 32.5714Z" fill="url(#paint14_linear)"/>
<path d="M105.046 35.2128V33.8921C104.48 33.8921 100.143 33.3261 94.8623 34.4581L95.0509 36.5335C99.3885 35.2128 105.046 35.2128 105.046 35.2128Z" fill="#402B2B"/>
<path d="M73.1743 39.9298C76.5689 38.0429 82.9811 37.0996 82.9811 36.9109L82.2267 35.0241C82.0381 35.0241 76.1918 36.1561 72.4199 38.609L73.1743 39.9298Z" fill="#402B2B"/>
<path d="M92.0332 46.3447C92.0332 46.3447 92.599 50.3069 94.1078 51.4389C95.6165 52.571 98.2568 53.5144 98.634 54.4577C99.0112 55.2124 98.2568 56.7218 96.5595 57.2879C94.8621 57.8539 94.6735 58.4199 94.6735 58.4199C94.6735 58.4199 98.0682 58.7973 99.7656 56.7219C101.463 54.6464 99.577 52.9483 97.8796 52.005C96.1823 51.0616 95.4279 50.6842 94.6735 50.1182C93.7305 49.5522 92.0332 46.3447 92.0332 46.3447Z" fill="#D87C60"/>
<path d="M83.9236 48.4201C83.9236 50.3068 82.6035 52.0049 80.9062 52.0049C79.2088 52.0049 77.8887 50.4955 77.8887 48.4201C77.8887 46.5333 79.2088 44.8353 80.9062 44.8353C82.6035 44.8353 83.9236 46.3447 83.9236 48.4201Z" fill="#402B2B"/>
<path d="M104.669 45.9673C104.669 47.8541 103.349 49.5521 101.651 49.5521C99.9539 49.5521 98.6338 48.0427 98.6338 45.9673C98.6338 44.0806 99.9539 42.3825 101.651 42.3825C103.349 42.5712 104.669 44.0806 104.669 45.9673Z" fill="#402B2B"/>
<path d="M197.079 96.5321H80.5293V186.53H197.079V96.5321Z" fill="#8C5E5E"/>
<path d="M197.267 96.5321H154.834V186.53H197.267V96.5321Z" fill="#694646"/>
<path d="M182.746 96.5321H171.808V108.985H182.746V96.5321Z" fill="#A3774A"/>
<path d="M120.134 96.5321H109.195V108.985H120.134V96.5321Z" fill="#A3774A"/>
<path d="M197.268 162.757C197.268 162.757 191.233 166.719 189.536 168.417C187.838 170.115 184.821 186.341 187.838 188.039C190.856 189.737 196.702 188.039 198.588 188.417C200.663 188.794 206.697 185.021 206.697 182.002C206.697 178.983 202.926 158.984 201.983 158.606C201.04 158.229 197.268 155.776 197.268 155.776V162.757Z" fill="#F4A984"/>
<path d="M121.453 161.436H85.0547V179.172H121.453V161.436Z" fill="white"/>
<path fill-rule="evenodd" clip-rule="evenodd" d="M49.2225 184.455C35.4552 164.455 33.5693 103.89 33.5693 103.89C52.4286 106.343 65.0643 131.626 65.0643 131.814L67.8932 168.04L116.024 175.752L118.625 173.323C118.625 173.323 129.752 167.663 138.804 168.606C138.804 168.606 142.953 169.361 142.01 171.814C141.633 173.134 142.388 173.983 143.142 174.832C143.896 175.681 144.651 176.53 144.274 177.851C143.955 178.965 144.241 179.811 144.522 180.643C144.908 181.783 145.284 182.898 144.085 184.643C144.085 184.643 145.594 186.907 143.896 188.983C143.819 189.077 143.738 189.177 143.653 189.281C141.862 191.476 138.367 195.758 137.107 195.398C136.633 195.262 135.529 195.078 134.289 194.872C132.074 194.503 129.428 194.063 129.186 193.7C128.809 193.134 128.432 192.002 130.318 190.87C130.318 190.87 128.243 191.436 125.603 191.058C122.963 190.87 119.191 188.794 119.191 188.794L118.49 188.21C65.5914 192.551 49.2225 184.455 49.2225 184.455Z" fill="url(#paint15_linear)"/>
<path d="M70.3449 159.361L65.0643 131.626C65.0643 131.626 55.4461 102.57 36.5869 100.117C36.5869 100.117 23.0082 108.607 39.7929 166.342L70.3449 159.361Z" fill="url(#paint16_linear)"/>
<defs>
<linearGradient id="paint0_linear" x1="261.207" y1="190.806" x2="255.873" y2="135.842" gradientUnits="userSpaceOnUse">
<stop stop-color="#FFB3B6"/>
<stop offset="1" stop-color="#FFC8C1"/>
</linearGradient>
<linearGradient id="paint1_linear" x1="266.717" y1="154.521" x2="266.717" y2="454.377" gradientUnits="userSpaceOnUse">
<stop stop-color="#F4A984"/>
<stop offset="1" stop-color="#EE4D47"/>
</linearGradient>
<linearGradient id="paint2_linear" x1="292.217" y1="98.311" x2="292.437" y2="34.7288" gradientUnits="userSpaceOnUse">
<stop stop-color="#FFB3B6"/>
<stop offset="1" stop-color="#FFC8C1"/>
</linearGradient>
<linearGradient id="paint3_linear" x1="318.187" y1="66.2818" x2="311.862" y2="21.4158" gradientUnits="userSpaceOnUse">
<stop stop-color="#FFB3B6"/>
<stop offset="1" stop-color="#FFC8C1"/>
</linearGradient>
<linearGradient id="paint4_linear" x1="322.26" y1="156.311" x2="322.26" y2="449.038" gradientUnits="userSpaceOnUse">
<stop stop-color="#F4A984"/>
<stop offset="1" stop-color="#EE4D47"/>
</linearGradient>
<linearGradient id="paint5_linear" x1="316.925" y1="56.2491" x2="315.53" y2="45.5822" gradientUnits="userSpaceOnUse">
<stop stop-color="#FFB3B6"/>
<stop offset="1" stop-color="#FFC8C1"/>
</linearGradient>
<linearGradient id="paint6_linear" x1="129.846" y1="463.311" x2="129.846" y2="491.97" gradientUnits="userSpaceOnUse">
<stop stop-color="#F4A984"/>
<stop offset="1" stop-color="#EE4D47"/>
</linearGradient>
<linearGradient id="paint7_linear" x1="33.8519" y1="452.991" x2="33.8519" y2="492.109" gradientUnits="userSpaceOnUse">
<stop stop-color="#F4A984"/>
<stop offset="1" stop-color="#EE4D47"/>
</linearGradient>
<linearGradient id="paint8_linear" x1="65.9088" y1="153.17" x2="65.9088" y2="471.351" gradientUnits="userSpaceOnUse">
<stop stop-color="#822626"/>
<stop offset="0.943497" stop-color="#402B2B"/>
</linearGradient>
<linearGradient id="paint9_linear" x1="82.7066" y1="54.5974" x2="82.7066" y2="233.82" gradientUnits="userSpaceOnUse">
<stop stop-color="#F4A984"/>
<stop offset="1" stop-color="#EE4D47"/>
</linearGradient>
<linearGradient id="paint10_linear" x1="72.1405" y1="88.5782" x2="91.2254" y2="96.8092" gradientUnits="userSpaceOnUse">
<stop stop-color="#FFB3B6"/>
<stop offset="1" stop-color="#FFC8C1"/>
</linearGradient>
<linearGradient id="paint11_linear" x1="71.7636" y1="79.1115" x2="90.9563" y2="87.2395" gradientUnits="userSpaceOnUse">
<stop stop-color="#FFB3B6" stop-opacity="0.31"/>
<stop offset="1" stop-color="#FFC8C1"/>
</linearGradient>
<linearGradient id="paint12_linear" x1="112.03" y1="74.4122" x2="107.948" y2="37.9344" gradientUnits="userSpaceOnUse">
<stop stop-color="#FFB3B6"/>
<stop offset="1" stop-color="#FFC8C1"/>
</linearGradient>
<linearGradient id="paint13_linear" x1="79.6473" y1="-19.0104" x2="79.6473" y2="35.8482" gradientUnits="userSpaceOnUse">
<stop stop-color="#F4A984"/>
<stop offset="1" stop-color="#EE4D47"/>
</linearGradient>
<linearGradient id="paint14_linear" x1="78.2142" y1="9.77678" x2="78.2142" y2="66.808" gradientUnits="userSpaceOnUse">
<stop stop-color="#F4A984"/>
<stop offset="1" stop-color="#EE4D47"/>
</linearGradient>
<linearGradient id="paint15_linear" x1="52.1428" y1="156.429" x2="149.911" y2="189.018" gradientUnits="userSpaceOnUse">
<stop stop-color="#FFB3B6"/>
<stop offset="1" stop-color="#FFC8C1"/>
</linearGradient>
<linearGradient id="paint16_linear" x1="50.8726" y1="80.9301" x2="50.8726" y2="148.824" gradientUnits="userSpaceOnUse">
<stop stop-color="#F4A984"/>
<stop offset="1" stop-color="#EE4D47"/>
</linearGradient>
</defs>
</svg>
