<svg width="1600" height="952" viewBox="0 0 1600 952" fill="none" xmlns="http://www.w3.org/2000/svg">
<path d="M1286 1H1V801H1186C1241.23 801 1286 756.228 1286 701V1Z" fill="url(#paint0_linear)"/>
<mask id="mask0" mask-type="alpha" maskUnits="userSpaceOnUse" x="1" y="1" width="1285" height="800">
<path d="M1286 1H1V801H1186C1241.23 801 1286 756.228 1286 701V1Z" fill="url(#paint1_linear)"/>
</mask>
<g mask="url(#mask0)">
<path d="M1326.57 345.525H1315.74C1313.5 345.525 1311.68 347.343 1311.68 349.586V593.864C1311.68 596.948 1309.18 599.448 1306.09 599.448C1303.01 599.448 1300.51 596.948 1300.51 593.864V437.796C1300.51 432.273 1296.03 427.796 1290.51 427.796H1280.05C1274.53 427.796 1270.05 432.273 1270.05 437.796V447.59C1270.05 453.113 1265.57 457.59 1260.05 457.59H1194.07C1189.86 457.59 1186.45 461 1186.45 465.207V469.441C1186.45 471.31 1184.94 472.825 1183.07 472.825C1181.2 472.825 1179.68 474.34 1179.68 476.21V530.553C1179.68 535.133 1175.97 538.845 1171.39 538.845C1166.81 538.845 1163.1 542.558 1163.1 547.137V583.354C1163.1 588.877 1158.62 593.354 1153.1 593.354H1152.11C1146.59 593.354 1142.11 597.831 1142.11 603.354V656.329C1142.11 658.385 1140.45 660.052 1138.39 660.052C1136.33 660.052 1134.67 658.385 1134.67 656.329V349.248C1134.67 347.566 1133.3 346.202 1131.62 346.202C1129.94 346.202 1128.57 344.838 1128.57 343.156V316.237C1128.57 313.34 1126.23 310.991 1123.33 310.991C1120.43 310.991 1118.08 308.642 1118.08 305.745V279.673C1118.08 277.71 1116.49 276.119 1114.53 276.119C1112.57 276.119 1110.98 274.528 1110.98 272.565V251.247C1110.98 245.724 1106.5 241.247 1100.98 241.247H1075.62C1070.1 241.247 1065.62 245.724 1065.62 251.247V272.565C1065.62 274.528 1064.03 276.119 1062.07 276.119C1060.11 276.119 1058.51 277.71 1058.51 279.673V305.745C1058.51 308.642 1056.17 310.991 1053.27 310.991C1050.37 310.991 1048.02 313.34 1048.02 316.237V343.325C1048.02 344.727 1046.89 345.863 1045.48 345.863C1044.08 345.863 1042.95 347 1042.95 348.402V557.638C1042.95 560.909 1040.29 563.561 1037.02 563.561C1033.75 563.561 1031.1 566.212 1031.1 569.484V652.775C1031.1 656.794 1027.84 660.052 1023.82 660.052H1017.22C1016.85 660.052 1016.55 659.748 1016.55 659.374C1016.55 659 1016.24 658.697 1015.87 658.697H1013.67C1013.02 658.697 1012.49 658.167 1012.49 657.512C1012.49 656.858 1013.02 656.327 1013.67 656.327H1014.85C1015.79 656.327 1016.55 655.569 1016.55 654.635C1016.55 653.7 1015.79 652.942 1014.85 652.942H1013.84C1013.09 652.942 1012.49 652.335 1012.49 651.587C1012.49 650.84 1013.09 650.233 1013.84 650.233H1014.85C1015.79 650.233 1016.55 649.475 1016.55 648.54C1016.55 647.605 1015.79 646.848 1014.85 646.848H1013.67C1013.02 646.848 1012.49 646.317 1012.49 645.663C1012.49 645.008 1013.02 644.478 1013.67 644.478H1014.85C1015.79 644.478 1016.55 643.72 1016.55 642.785C1016.55 641.85 1015.79 641.092 1014.85 641.092H1013.67C1013.02 641.092 1012.49 640.561 1012.49 639.907C1012.49 639.253 1013.02 638.722 1013.67 638.722H1014.85C1015.79 638.722 1016.55 637.964 1016.55 637.029C1016.55 636.094 1015.79 635.336 1014.85 635.336H1013.67C1013.02 635.336 1012.49 634.806 1012.49 634.151C1012.49 633.497 1013.02 632.966 1013.67 632.966H1014.85C1015.79 632.966 1016.55 632.208 1016.55 631.274C1016.55 630.339 1015.79 629.581 1014.85 629.581H1013.67C1013.02 629.581 1012.49 629.05 1012.49 628.396C1012.49 627.741 1013.02 627.211 1013.67 627.211H1014.85C1015.79 627.211 1016.55 626.453 1016.55 625.518C1016.55 624.583 1015.79 623.825 1014.85 623.825H1013.67C1013.02 623.825 1012.49 623.295 1012.49 622.64C1012.49 621.986 1013.02 621.455 1013.67 621.455H1014.85C1015.79 621.455 1016.55 620.697 1016.55 619.762C1016.55 618.827 1015.79 618.07 1014.85 618.07H1013.67C1013.02 618.07 1012.49 617.539 1012.49 616.885C1012.49 616.23 1013.02 615.7 1013.67 615.7H1014.85C1015.79 615.7 1016.55 614.942 1016.55 614.007C1016.55 613.072 1015.79 612.314 1014.85 612.314H1013.67C1013.02 612.314 1012.49 611.783 1012.49 611.129C1012.49 610.475 1013.02 609.944 1013.67 609.944H1014.85C1015.79 609.944 1016.55 609.186 1016.55 608.251C1016.55 607.316 1015.79 606.558 1014.85 606.558H1013.67C1013.02 606.558 1012.49 606.028 1012.49 605.373C1012.49 604.719 1013.02 604.188 1013.67 604.188H1014.85C1015.79 604.188 1016.55 603.43 1016.55 602.496C1016.55 601.561 1015.79 600.803 1014.85 600.803H1014.52C1013.39 600.803 1012.49 599.893 1012.49 598.772V598.094C1012.49 596.972 1013.39 596.063 1014.52 596.063H1014.85C1015.79 596.063 1016.55 595.305 1016.55 594.37C1016.55 593.435 1015.79 592.677 1014.85 592.677H1013.67C1013.02 592.677 1012.49 592.147 1012.49 591.492C1012.49 590.838 1013.02 590.307 1013.67 590.307H1014.85C1015.79 590.307 1016.55 589.549 1016.55 588.614C1016.55 587.679 1015.79 586.922 1014.85 586.922H1013.67C1013.02 586.922 1012.49 586.391 1012.49 585.737C1012.49 585.082 1013.02 584.552 1013.67 584.552H1014.85C1015.79 584.552 1016.55 583.794 1016.55 582.859C1016.55 581.924 1015.79 581.166 1014.85 581.166H1013.67C1013.02 581.166 1012.49 580.635 1012.49 579.981C1012.49 579.327 1013.02 578.796 1013.67 578.796H1014.85C1015.79 578.796 1016.55 578.038 1016.55 577.103C1016.55 576.168 1015.79 575.41 1014.85 575.41H1013.67C1013.02 575.41 1012.49 574.88 1012.49 574.225C1012.49 573.571 1013.02 573.04 1013.67 573.04H1014.85C1015.79 573.04 1016.55 572.282 1016.55 571.348C1016.55 570.413 1015.79 569.655 1014.85 569.655H1013.67C1013.02 569.655 1012.49 569.124 1012.49 568.47C1012.49 567.815 1013.02 567.285 1013.67 567.285H1014.85C1015.79 567.285 1016.55 566.527 1016.55 565.592C1016.55 564.657 1015.79 563.899 1014.85 563.899H1013.67C1013.02 563.899 1012.49 563.369 1012.49 562.714C1012.49 562.06 1013.02 561.529 1013.67 561.529H1014.85C1015.79 561.529 1016.55 560.771 1016.55 559.836C1016.55 558.901 1015.79 558.144 1014.85 558.144H1013.67C1013.02 558.144 1012.49 557.613 1012.49 556.959C1012.49 556.304 1013.02 555.774 1013.67 555.774H1014.85C1015.79 555.774 1016.55 555.016 1016.55 554.081C1016.55 553.146 1015.79 552.388 1014.85 552.388H1013.67C1013.02 552.388 1012.49 551.857 1012.49 551.203C1012.49 550.548 1013.02 550.018 1013.67 550.018H1014.85C1015.79 550.018 1016.55 549.26 1016.55 548.325C1016.55 547.39 1015.79 546.632 1014.85 546.632H1013.67C1013.02 546.632 1012.49 546.102 1012.49 545.447C1012.49 544.793 1013.02 544.262 1013.67 544.262H1014.85C1015.79 544.262 1016.55 543.504 1016.55 542.57C1016.55 541.635 1015.79 540.877 1014.85 540.877H1013.67C1013.02 540.877 1012.49 540.346 1012.49 539.692C1012.49 539.037 1013.02 538.507 1013.67 538.507H1014.85C1015.79 538.507 1016.55 537.749 1016.55 536.814C1016.55 535.879 1015.79 535.121 1014.85 535.121H1013.67C1013.02 535.121 1012.49 534.591 1012.49 533.936C1012.49 533.282 1013.02 532.751 1013.67 532.751H1014.85C1015.79 532.751 1016.55 531.993 1016.55 531.058C1016.55 530.123 1015.79 529.366 1014.85 529.366H1013.67C1013.02 529.366 1012.49 528.835 1012.49 528.181C1012.49 527.526 1013.02 526.996 1013.67 526.996H1014.85C1015.79 526.996 1016.55 526.238 1016.55 525.303C1016.55 524.368 1015.79 523.61 1014.85 523.61H1014.52C1013.39 523.61 1012.49 522.701 1012.49 521.579V520.224C1012.49 519.102 1013.39 518.193 1014.52 518.193H1014.85C1015.79 518.193 1016.55 517.435 1016.55 516.5C1016.55 515.565 1015.79 514.807 1014.85 514.807H1013.67C1013.02 514.807 1012.49 514.277 1012.49 513.622C1012.49 512.968 1013.02 512.437 1013.67 512.437H1014.85C1015.79 512.437 1016.55 511.679 1016.55 510.744C1016.55 509.81 1015.79 509.052 1014.85 509.052H1013.67C1013.02 509.052 1012.49 508.521 1012.49 507.867C1012.49 507.212 1013.02 506.682 1013.67 506.682H1014.85C1015.79 506.682 1016.55 505.924 1016.55 504.989C1016.55 504.054 1015.79 503.296 1014.85 503.296H1013.67C1013.02 503.296 1012.49 502.765 1012.49 502.111C1012.49 501.457 1013.02 500.926 1013.67 500.926H1014.85C1015.79 500.926 1016.55 500.168 1016.55 499.233C1016.55 498.298 1015.79 497.54 1014.85 497.54H1014.52C1013.39 497.54 1012.49 496.631 1012.49 495.51V493.308C1012.49 492.467 1011.8 491.785 1010.96 491.785C1010.12 491.785 1009.44 491.103 1009.44 490.262V488.061C1009.44 486.004 1007.77 484.336 1005.72 484.336H1005.38C1003.13 484.336 1001.32 482.518 1001.32 480.275V469.438C1001.32 467.756 999.953 466.392 998.271 466.392C996.588 466.392 995.224 465.029 995.224 463.346V451.761C995.224 447.06 991.95 442.994 987.357 441.991L976.609 439.646C974.034 439.051 972.209 436.758 972.209 434.114V402.572C972.209 401.918 971.679 401.388 971.025 401.388C970.371 401.388 969.84 401.918 969.84 402.572V434.473C969.84 436.429 968.024 437.879 966.117 437.445C964.21 437.012 962.394 438.461 962.394 440.417V463.854C962.394 465.256 961.258 466.392 959.856 466.392C958.454 466.392 957.318 467.529 957.318 468.931V480.275C957.318 482.518 955.499 484.336 953.256 484.336H952.411C950.635 484.336 949.195 485.776 949.195 487.553V489.246C949.195 490.087 948.513 490.769 947.672 490.769C946.831 490.769 946.149 491.451 946.149 492.292V493.647C946.149 495.236 944.86 496.525 943.271 496.525H913.503C907.981 496.525 903.503 501.002 903.503 506.525V524.105C903.503 529.628 899.026 534.105 893.503 534.105H868.83C867.588 534.105 866.357 534.337 865.2 534.788L834.797 546.632C833.775 547.041 833.105 548.031 833.105 549.132V560.853C833.105 562.348 834.318 563.561 835.813 563.561H836.489C837.611 563.561 838.52 564.47 838.52 565.592C838.52 566.714 837.611 567.623 836.489 567.623H835.137C834.015 567.623 833.105 568.533 833.105 569.655C833.105 570.777 834.015 571.686 835.137 571.686H836.489C837.611 571.686 838.52 572.596 838.52 573.718C838.52 574.839 837.611 575.749 836.489 575.749H835.137C834.015 575.749 833.105 576.658 833.105 577.78C833.105 578.902 834.015 579.812 835.137 579.812H836.489C837.611 579.812 838.52 580.721 838.52 581.843C838.52 582.965 837.611 583.874 836.489 583.874H835.137C834.015 583.874 833.105 584.784 833.105 585.906C833.105 587.028 834.015 587.937 835.137 587.937H836.489C837.611 587.937 838.52 588.847 838.52 589.969C838.52 591.091 837.611 592 836.489 592H835.137C834.015 592 833.105 592.91 833.105 594.031C833.105 595.153 834.015 596.063 835.137 596.063H836.997C837.838 596.063 838.52 596.745 838.52 597.586C838.52 598.428 837.838 599.11 836.997 599.11H806.219C802.036 599.11 798.295 596.507 796.842 592.585L788.79 570.855C787.389 567.076 782.041 567.082 780.65 570.865C778.954 575.477 771.828 574.154 771.838 569.24C771.845 565.879 771.845 562.519 771.845 559.159C771.845 554.419 771.845 549.679 771.845 544.939C771.845 531.397 771.845 517.854 771.507 504.312C771.507 498.556 771.168 492.462 771.168 486.706C770.83 474.179 770.491 461.652 769.814 448.787C769.476 442.693 769.476 436.599 769.137 430.504C768.461 418.655 768.122 407.143 767.445 395.294C767.445 393.939 767.107 392.585 767.107 391.231C766.43 380.735 765.753 370.578 765.076 360.083C763.722 341.123 762.03 322.164 760.338 303.204C760.214 301.475 760.046 299.701 759.865 297.915C759.337 292.695 754.919 288.646 749.672 288.646H686.252C681.398 288.646 677.078 292.256 677.078 297.11C676.74 301.173 676.401 305.235 676.063 309.298C675.724 312.684 675.386 316.408 675.047 319.794C674.371 326.226 674.032 332.659 673.355 339.092C673.017 342.139 673.017 344.848 672.678 347.895C672.34 353.312 672.001 358.729 671.325 364.146C670.986 366.516 670.986 368.886 670.986 370.917C670.648 378.027 669.971 385.137 669.632 391.908C669.632 394.278 669.294 396.648 669.294 399.018C668.955 406.466 668.617 413.576 668.278 421.025C668.278 422.717 667.94 424.072 667.94 425.765C667.602 432.536 667.263 439.646 666.925 446.417C666.925 447.771 666.925 449.126 666.925 450.48C666.586 458.267 666.248 466.054 666.248 473.841C666.248 475.534 666.248 476.888 666.248 478.581C665.909 486.706 665.909 494.832 665.571 502.619V503.635C665.571 511.76 665.233 519.886 665.233 527.673C665.233 528.688 665.233 529.704 665.233 530.72C665.233 538.845 665.233 546.971 665.233 555.096C665.233 556.112 665.233 557.466 665.233 558.482C665.233 560.894 665.233 563.307 665.233 565.763C665.233 569.782 661.975 573.04 657.956 573.04C653.937 573.04 650.679 576.298 650.679 580.317V661.578C650.679 666.344 646.815 670.208 642.048 670.208H634.264C633.797 670.208 633.418 669.83 633.418 669.362C633.418 668.895 633.797 668.516 634.264 668.516H634.941C635.782 668.516 636.464 667.834 636.464 666.993V666.315C636.464 665.473 635.782 664.792 634.941 664.792C634.1 664.792 633.418 664.11 633.418 663.268V661.913C633.418 661.072 634.1 660.39 634.941 660.39C635.782 660.39 636.464 659.708 636.464 658.867V658.189C636.464 657.348 635.782 656.666 634.941 656.666C634.1 656.666 633.418 655.984 633.418 655.143V653.449C633.418 652.608 634.1 651.926 634.941 651.926C635.782 651.926 636.464 651.244 636.464 650.403V649.725C636.464 648.884 635.782 648.202 634.941 648.202C634.1 648.202 633.418 647.52 633.418 646.679V644.985C633.418 644.144 634.1 643.462 634.941 643.462C635.782 643.462 636.464 642.78 636.464 641.939V641.261C636.464 640.42 635.782 639.738 634.941 639.738C634.1 639.738 633.418 639.056 633.418 638.215V636.521C633.418 635.68 634.1 634.998 634.941 634.998C635.782 634.998 636.464 634.316 636.464 633.475V632.797C636.464 631.955 635.782 631.274 634.941 631.274C634.1 631.274 633.418 630.592 633.418 629.75V628.057C633.418 627.216 634.1 626.534 634.941 626.534C635.782 626.534 636.464 625.852 636.464 625.011V624.332C636.464 623.491 635.782 622.809 634.941 622.809C634.1 622.809 633.418 622.128 633.418 621.286V619.593C633.418 618.751 634.1 618.07 634.941 618.07C635.782 618.07 636.464 617.388 636.464 616.546V615.868C636.464 615.027 635.782 614.345 634.941 614.345C634.1 614.345 633.418 613.663 633.418 612.822V611.128C633.418 610.287 634.1 609.605 634.941 609.605C635.782 609.605 636.464 608.923 636.464 608.082V607.404C636.464 606.563 635.782 605.881 634.941 605.881C634.1 605.881 633.418 605.199 633.418 604.358V602.664C633.418 601.823 634.1 601.141 634.941 601.141C635.782 601.141 636.464 600.459 636.464 599.618V598.94C636.464 598.099 635.782 597.417 634.941 597.417C634.1 597.417 633.418 596.735 633.418 595.894V594.2C633.418 593.359 634.1 592.677 634.941 592.677C635.782 592.677 636.464 591.995 636.464 591.154V590.476C636.464 589.635 635.782 588.953 634.941 588.953C634.1 588.953 633.418 588.271 633.418 587.43V585.736C633.418 584.895 634.1 584.213 634.941 584.213C635.782 584.213 636.464 583.531 636.464 582.69V580.658C636.464 579.816 635.782 579.135 634.941 579.135C634.1 579.135 633.418 578.453 633.418 577.611V575.918C633.418 575.077 634.1 574.395 634.941 574.395C635.782 574.395 636.464 573.713 636.464 572.872V572.194C636.464 571.352 635.782 570.67 634.941 570.67C634.1 570.67 633.418 569.989 633.418 569.147V567.115C633.418 566.274 634.1 565.592 634.941 565.592C635.782 565.592 636.464 564.91 636.464 564.069V563.391C636.464 562.55 635.782 561.868 634.941 561.868C634.1 561.868 633.418 561.186 633.418 560.345V558.651C633.418 557.81 634.1 557.128 634.941 557.128C635.782 557.128 636.464 556.446 636.464 555.605V554.927C636.464 554.086 635.782 553.404 634.941 553.404C634.1 553.404 633.418 552.722 633.418 551.881V550.187C633.418 549.346 634.1 548.664 634.941 548.664C635.782 548.664 636.464 547.982 636.464 547.141V546.463C636.464 545.621 635.782 544.939 634.941 544.939C634.1 544.939 633.418 544.258 633.418 543.416V541.723C633.418 540.882 634.1 540.2 634.941 540.2C635.782 540.2 636.464 539.518 636.464 538.677V537.998C636.464 537.157 635.782 536.475 634.941 536.475C634.1 536.475 633.418 535.793 633.418 534.952V533.259C633.418 532.417 634.1 531.735 634.941 531.735C635.782 531.735 636.464 531.054 636.464 530.212V529.534C636.464 528.693 635.782 528.011 634.941 528.011C634.1 528.011 633.418 527.329 633.418 526.488V524.794C633.418 523.953 634.1 523.271 634.941 523.271C635.782 523.271 636.464 522.589 636.464 521.748V521.07C636.464 520.229 635.782 519.547 634.941 519.547C634.1 519.547 633.418 518.865 633.418 518.024V516.33C633.418 515.489 634.1 514.807 634.941 514.807C635.782 514.807 636.464 514.125 636.464 513.284V512.606C636.464 511.765 635.782 511.083 634.941 511.083C634.1 511.083 633.418 510.401 633.418 509.56V507.866C633.418 507.025 634.1 506.343 634.941 506.343C635.782 506.343 636.464 505.661 636.464 504.82V502.788C636.464 501.947 635.782 501.265 634.941 501.265C634.1 501.265 633.418 500.583 633.418 499.742V498.048C633.418 497.207 634.1 496.525 634.941 496.525C635.782 496.525 636.464 495.843 636.464 495.002V494.324C636.464 493.482 635.782 492.8 634.941 492.8C634.1 492.8 633.418 492.119 633.418 491.277V489.584C633.418 488.742 634.1 488.061 634.941 488.061C635.782 488.061 636.464 487.379 636.464 486.537V485.859C636.464 485.018 635.782 484.336 634.941 484.336C634.1 484.336 633.418 483.654 633.418 482.813V481.12C633.418 480.278 634.1 479.596 634.941 479.596C635.782 479.596 636.464 478.915 636.464 478.073V477.395C636.464 476.554 635.782 475.872 634.941 475.872C634.1 475.872 633.418 475.19 633.418 474.349V468.931C633.418 468.09 634.1 467.408 634.941 467.408C635.782 467.408 636.464 466.726 636.464 465.885V464.869C636.464 463.466 635.327 462.33 633.925 462.33H629.019C627.71 462.33 626.649 461.269 626.649 459.96V459.402C626.649 458.401 627.46 457.59 628.461 457.59C629.951 457.59 630.805 455.893 629.917 454.697L617.776 438.337C616.331 436.392 614.051 435.244 611.628 435.244H611.421C607.307 435.244 603.972 431.91 603.972 427.796C603.972 427.048 603.295 426.174 603.295 425.426V405.958C603.295 405.304 602.765 404.774 602.111 404.774C601.457 404.774 600.926 405.304 600.926 405.958V425.479C600.926 426.198 600.25 427.077 600.25 427.796C600.25 431.91 596.915 435.244 592.801 435.244H592.594C590.171 435.244 587.891 436.392 586.446 438.338L573.634 455.601C573.024 456.423 573.611 457.59 574.635 457.59C575.323 457.59 575.881 458.148 575.881 458.836V459.96C575.881 461.269 574.82 462.33 573.511 462.33H568.605C567.203 462.33 566.066 463.466 566.066 464.869V465.547C566.066 466.575 566.899 467.408 567.927 467.408C568.955 467.408 569.789 468.242 569.789 469.27V474.011C569.789 475.039 568.955 475.872 567.927 475.872C566.899 475.872 566.066 476.706 566.066 477.734C566.066 478.762 566.899 479.596 567.927 479.596C568.955 479.596 569.789 480.43 569.789 481.458V482.475C569.789 483.503 568.955 484.336 567.927 484.336C566.899 484.336 566.066 485.17 566.066 486.198C566.066 487.227 566.899 488.061 567.927 488.061C568.955 488.061 569.789 488.894 569.789 489.922V490.939C569.789 491.967 568.955 492.8 567.927 492.8C566.899 492.8 566.066 493.634 566.066 494.663C566.066 495.691 566.899 496.525 567.927 496.525C568.955 496.525 569.789 497.358 569.789 498.386V499.403C569.789 500.431 568.955 501.265 567.927 501.265C566.899 501.265 566.066 502.099 566.066 503.127C566.066 504.155 566.899 504.989 567.927 504.989C568.955 504.989 569.789 505.822 569.789 506.85V507.867C569.789 508.895 568.955 509.729 567.927 509.729C566.899 509.729 566.066 510.563 566.066 511.591C566.066 512.619 566.899 513.453 567.927 513.453C568.955 513.453 569.789 514.286 569.789 515.314V516.331C569.789 517.359 568.955 518.193 567.927 518.193C566.899 518.193 566.066 519.027 566.066 520.055C566.066 521.083 566.899 521.917 567.927 521.917C568.955 521.917 569.789 522.75 569.789 523.779V524.795C569.789 525.824 568.955 526.657 567.927 526.657C566.899 526.657 566.066 527.491 566.066 528.519C566.066 529.547 566.899 530.381 567.927 530.381C568.955 530.381 569.789 531.215 569.789 532.243V533.26C569.789 534.288 568.955 535.121 567.927 535.121C566.899 535.121 566.066 535.955 566.066 536.983C566.066 538.011 566.899 538.845 567.927 538.845C568.955 538.845 569.789 539.679 569.789 540.707V541.724C569.789 542.752 568.955 543.585 567.927 543.585C566.899 543.585 566.066 544.419 566.066 545.447C566.066 546.475 566.899 547.309 567.927 547.309C568.955 547.309 569.789 548.143 569.789 549.171V550.188C569.789 551.216 568.955 552.049 567.927 552.049C566.899 552.049 566.066 552.883 566.066 553.911C566.066 554.94 566.899 555.774 567.927 555.774C568.955 555.774 569.789 556.607 569.789 557.635V558.652C569.789 559.68 568.955 560.513 567.927 560.513C566.899 560.513 566.066 561.348 566.066 562.376C566.066 563.404 566.899 564.238 567.927 564.238C568.955 564.238 569.789 565.071 569.789 566.099V567.116C569.789 568.144 568.955 568.978 567.927 568.978C566.899 568.978 566.066 569.812 566.066 570.84C566.066 571.868 566.899 572.702 567.927 572.702C568.955 572.702 569.789 573.535 569.789 574.563V575.58C569.789 576.608 568.955 577.442 567.927 577.442C566.899 577.442 566.066 578.276 566.066 579.304C566.066 580.332 566.899 581.166 567.927 581.166C568.955 581.166 569.789 581.999 569.789 583.027V584.044C569.789 585.072 568.955 585.906 567.927 585.906C566.899 585.906 566.066 586.74 566.066 587.768C566.066 588.796 566.899 589.63 567.927 589.63H569.281C569.561 589.63 569.789 589.857 569.789 590.138C569.789 590.418 569.561 590.646 569.281 590.646H551.514C549.083 590.646 547.112 588.675 547.112 586.244V582.52V577.78V574.056V569.316V565.592V560.852V557.128V552.388V548.664V543.924V540.2V535.46V531.735V526.996V523.271V518.531V514.807V510.067V506.343V501.603V497.879V493.139V489.415V485.013V481.289V476.549V472.825V468.085V464.361V459.621V455.897V451.496V447.771V443.031V439.307V434.567V430.843V426.103V422.379V417.639V413.915V409.175V405.451V400.711V396.987V392.247V388.522V383.783V380.058V375.318V371.594V366.854V363.13V358.39V354.666V349.926L546.939 342.635C546.839 338.468 544.165 334.799 540.228 333.429L530.149 329.922C526.858 328.777 523.421 331.22 523.421 334.705V336.251C523.421 338.194 521.846 339.769 519.903 339.769C517.932 339.769 516.346 338.15 516.385 336.18L516.829 314.22C516.923 309.558 513.782 305.449 509.257 304.317L487.87 298.969C481.861 297.466 475.945 301.732 475.473 307.908L472.314 349.249L471.976 353.989L471.637 357.713L471.299 362.453L470.96 366.177L470.622 370.917L470.283 374.641L469.945 379.381L469.607 383.105L469.268 387.845L468.93 391.57L468.591 396.309L468.253 400.034L467.914 404.774L467.576 408.498L467.237 413.238L466.899 416.962L466.56 421.702L466.222 425.426L465.884 430.166L465.545 433.89L465.207 438.63L464.868 442.354L464.849 442.618C464.646 445.465 463.235 448.09 460.973 449.831L459.228 451.173C457.001 452.887 455.607 455.465 455.391 458.267L455.053 461.991L454.715 466.731L454.376 470.455L454.038 475.195L453.699 478.919L453.361 483.659L453.022 487.383L452.684 491.785C452.684 492.72 451.926 493.478 450.991 493.478H423.085C417.562 493.478 413.085 497.955 413.085 503.478V542.063C413.085 544.961 410.736 547.309 407.839 547.309C404.942 547.309 402.593 549.658 402.593 552.555V656.668C402.593 660.594 399.411 663.776 395.485 663.776C391.56 663.776 388.378 660.594 388.378 656.668V240.569C388.378 239.073 387.166 237.861 385.67 237.861C384.175 237.861 382.963 236.649 382.963 235.153V198.092C382.963 192.569 378.485 188.092 372.963 188.092H315.457C309.934 188.092 305.457 192.569 305.457 198.092V235.492C305.457 236.987 304.245 238.2 302.749 238.2C301.254 238.2 300.042 239.412 300.042 240.907V421.196C300.042 423.906 297.844 426.103 295.134 426.103H291.242C290.681 426.103 290.226 426.558 290.226 427.119V427.458C290.226 427.832 289.923 428.135 289.549 428.135C289.176 428.135 288.873 428.438 288.873 428.811V432.536C288.873 432.91 289.176 433.213 289.549 433.213C289.923 433.213 290.226 433.516 290.226 433.89V434.229C290.226 434.603 289.923 434.906 289.549 434.906C289.176 434.906 288.873 435.209 288.873 435.583V439.307C288.873 439.681 289.176 439.984 289.549 439.984C289.923 439.984 290.226 440.287 290.226 440.661V441C290.226 441.374 289.923 441.677 289.549 441.677C289.176 441.677 288.873 441.98 288.873 442.354V446.079C288.873 446.453 289.176 446.756 289.549 446.756C289.923 446.756 290.226 447.059 290.226 447.432V447.772C290.226 448.145 289.923 448.448 289.549 448.448C289.176 448.448 288.873 448.751 288.873 449.125V452.85C288.873 453.224 289.176 453.527 289.549 453.527C289.923 453.527 290.226 453.83 290.226 454.204V454.543C290.226 454.917 289.923 455.22 289.549 455.22C289.176 455.22 288.873 455.523 288.873 455.897V459.621C288.873 459.995 289.176 460.298 289.549 460.298C289.923 460.298 290.226 460.601 290.226 460.975V461.314C290.226 461.688 289.923 461.991 289.549 461.991C289.176 461.991 288.873 462.294 288.873 462.668V466.393C288.873 466.766 289.176 467.07 289.549 467.07C289.923 467.07 290.226 467.373 290.226 467.746V468.085C290.226 468.459 289.923 468.762 289.549 468.762C289.176 468.762 288.873 469.065 288.873 469.439V473.164C288.873 473.538 289.176 473.841 289.549 473.841C289.923 473.841 290.226 474.144 290.226 474.518V474.857C290.226 475.231 289.923 475.534 289.549 475.534C289.176 475.534 288.873 475.837 288.873 476.211V479.935C288.873 480.309 289.176 480.612 289.549 480.612C289.923 480.612 290.226 480.915 290.226 481.289V481.628C290.226 482.002 289.923 482.305 289.549 482.305C289.176 482.305 288.873 482.608 288.873 482.982V486.707C288.873 487.08 289.176 487.383 289.549 487.383C289.923 487.383 290.226 487.686 290.226 488.06V488.399C290.226 488.773 289.923 489.076 289.549 489.076C289.176 489.076 288.873 489.379 288.873 489.753V493.478C288.873 493.852 289.176 494.155 289.549 494.155C289.923 494.155 290.226 494.458 290.226 494.832V495.171C290.226 495.545 289.923 495.848 289.549 495.848C289.176 495.848 288.873 496.151 288.873 496.524V500.249C288.873 500.623 289.176 500.926 289.549 500.926C289.923 500.926 290.226 501.229 290.226 501.603V501.942C290.226 502.316 289.923 502.619 289.549 502.619C289.176 502.619 288.873 502.922 288.873 503.296V507.02C288.873 507.394 289.176 507.697 289.549 507.697C289.923 507.697 290.226 508 290.226 508.374V508.713C290.226 509.087 289.923 509.39 289.549 509.39C289.176 509.39 288.873 509.693 288.873 510.067V513.792C288.873 514.166 289.176 514.469 289.549 514.469C289.923 514.469 290.226 514.772 290.226 515.146V515.485C290.226 515.858 289.923 516.161 289.549 516.161C289.176 516.161 288.873 516.465 288.873 516.838V520.563C288.873 520.937 289.176 521.24 289.549 521.24C289.923 521.24 290.226 521.543 290.226 521.917V522.256C290.226 522.63 289.923 522.933 289.549 522.933C289.176 522.933 288.873 523.236 288.873 523.61V527.334C288.873 527.708 289.176 528.011 289.549 528.011C289.923 528.011 290.226 528.314 290.226 528.688V535.798C290.226 536.172 289.923 536.475 289.549 536.475C289.176 536.475 288.873 536.778 288.873 537.152V540.877C288.873 541.251 289.176 541.554 289.549 541.554C289.923 541.554 290.226 541.857 290.226 542.231V542.57C290.226 542.944 289.923 543.247 289.549 543.247C289.176 543.247 288.873 543.55 288.873 543.924V544.77C288.873 545.612 288.19 546.294 287.349 546.294H276.196C270.673 546.294 266.196 541.817 266.196 536.294V444.906C266.196 439.383 261.719 434.906 256.196 434.906H216.628C211.106 434.906 206.628 439.383 206.628 444.906V498.051C206.628 502.818 202.764 506.682 197.998 506.682H191.399C190.277 506.682 189.367 505.772 189.367 504.65C189.367 503.528 188.458 502.619 187.336 502.619H185.813C183.851 502.619 182.26 501.028 182.26 499.065V371.933V228.042C182.26 226.546 181.047 225.334 179.552 225.334C178.057 225.334 176.844 224.122 176.844 222.626V149C176.844 143.477 172.367 139 166.844 139H93.0929C87.5701 139 83.0929 143.477 83.0929 149V222.627C83.0929 224.122 81.8806 225.334 80.3853 225.334C78.89 225.334 77.6777 226.546 77.6777 228.042V586.247C77.6777 589.798 74.7987 592.677 71.2471 592.677C67.6956 592.677 64.8165 589.798 64.8165 586.247V457.771C64.8165 452.248 60.3394 447.771 54.8165 447.771H52.1401C46.6173 447.771 42.1401 443.294 42.1401 437.771V387.167C42.1401 385.111 40.4733 383.444 38.4172 383.444C36.3611 383.444 34.6942 381.777 34.6942 379.721V364.327C34.6942 358.805 30.217 354.327 24.6942 354.327H-60.9032C-66.426 354.327 -70.9032 358.805 -70.9032 364.327V379.721C-70.9032 381.777 -72.5701 383.444 -74.6262 383.444C-76.6823 383.444 -78.3491 385.111 -78.3491 387.167V607.392C-78.3491 612.915 -82.8263 617.392 -88.3491 617.392H-92.7178C-98.2406 617.392 -102.718 612.915 -102.718 607.392V476.054C-102.718 470.531 -107.195 466.054 -112.718 466.054H-182.408C-187.931 466.054 -192.408 470.531 -192.408 476.054V551.714C-192.408 557.135 -196.802 561.529 -202.223 561.529C-207.644 561.529 -212.038 565.924 -212.038 571.344V648.542C-212.038 651.72 -214.614 654.296 -217.792 654.296C-220.97 654.296 -223.546 651.72 -223.546 648.542V386.83V382.427C-223.546 381.119 -224.606 380.058 -225.915 380.058H-227.268C-227.829 380.058 -228.284 379.604 -228.284 379.043C-228.284 378.482 -227.829 378.027 -227.268 378.027H-225.915C-224.606 378.027 -223.546 376.966 -223.546 375.658V373.625C-223.546 372.316 -224.606 371.256 -225.915 371.256H-227.268C-227.829 371.256 -228.284 370.801 -228.284 370.24C-228.284 369.679 -227.829 369.224 -227.268 369.224H-225.915C-224.606 369.224 -223.546 368.164 -223.546 366.855V364.822C-223.546 363.514 -224.606 362.453 -225.915 362.453H-227.268C-227.829 362.453 -228.284 361.998 -228.284 361.437C-228.284 360.876 -227.829 360.422 -227.268 360.422H-225.915C-224.606 360.422 -223.546 359.361 -223.546 358.052V356.019C-223.546 354.711 -224.606 353.65 -225.915 353.65H-227.607C-227.981 353.65 -228.284 353.347 -228.284 352.973C-228.284 352.599 -227.981 352.296 -227.607 352.296H-225.746C-224.344 352.296 -223.207 351.159 -223.207 349.758V348.063C-223.207 346.661 -224.344 345.525 -225.746 345.525H-227.268C-227.829 345.525 -228.284 345.07 -228.284 344.509C-228.284 343.948 -227.829 343.493 -227.268 343.493H-225.746C-224.344 343.493 -223.207 342.357 -223.207 340.955V339.26C-223.207 337.858 -224.344 336.722 -225.746 336.722H-227.268C-227.829 336.722 -228.284 336.267 -228.284 335.706C-228.284 335.145 -227.829 334.691 -227.268 334.691H-225.746C-224.344 334.691 -223.207 333.554 -223.207 332.152V330.458C-223.207 329.056 -224.344 327.919 -225.746 327.919H-227.268C-227.829 327.919 -228.284 327.465 -228.284 326.904C-228.284 326.343 -227.829 325.888 -227.268 325.888H-225.746C-224.344 325.888 -223.207 324.751 -223.207 323.349V305.407C-223.207 302.12 -224.858 299.081 -227.324 296.908C-237.463 287.978 -251.68 268.9 -251.976 242.601V241.924V241.076C-251.976 239.488 -253.264 238.2 -254.853 238.2H-255.867C-256.896 238.2 -257.729 239.033 -257.729 240.062C-257.729 241.09 -258.563 241.924 -259.591 241.924H-261.791C-264.034 241.924 -265.852 240.105 -265.852 237.862V184.536C-265.852 183.695 -266.534 183.013 -267.375 183.013C-268.216 183.013 -268.898 183.695 -268.898 184.536V241.416C-268.898 241.884 -269.277 242.262 -269.745 242.262C-270.212 242.262 -270.591 241.884 -270.591 241.416V240.4C-270.591 239.372 -271.424 238.538 -272.453 238.538H-274.821C-275.849 238.538 -276.683 239.372 -276.683 240.4C-276.683 241.429 -277.516 242.262 -278.545 242.262H-285.651C-286.68 242.262 -287.513 241.429 -287.513 240.4C-287.513 239.372 -288.347 238.538 -289.375 238.538H-290.559C-292.242 238.538 -293.605 239.902 -293.605 241.584V242.262C-293.605 268.941 -300.965 288.257 -309.531 297.354C-311.823 299.788 -313.574 302.842 -313.574 306.185V319.624C-313.574 319.718 -313.498 319.794 -313.405 319.794C-313.311 319.794 -313.236 319.87 -313.236 319.963V323.519C-313.236 325.201 -311.872 326.565 -310.19 326.565H-308.159C-307.598 326.565 -307.143 327.02 -307.143 327.581C-307.143 328.142 -307.598 328.596 -308.159 328.596H-310.19C-311.872 328.596 -313.236 329.96 -313.236 331.643V332.322C-313.236 334.004 -311.872 335.368 -310.19 335.368H-308.159C-307.598 335.368 -307.143 335.822 -307.143 336.383C-307.143 336.944 -307.598 337.399 -308.159 337.399H-310.359C-312.135 337.399 -313.574 338.839 -313.574 340.614V340.955C-313.574 342.731 -312.135 344.17 -310.359 344.17H-307.821C-307.447 344.17 -307.143 344.474 -307.143 344.848C-307.143 345.222 -307.447 345.525 -307.821 345.525H-310.359C-312.135 345.525 -313.574 346.964 -313.574 348.74V349.081C-313.574 350.856 -312.135 352.296 -310.359 352.296H-308.159C-307.598 352.296 -307.143 352.751 -307.143 353.312C-307.143 353.873 -307.598 354.327 -308.159 354.327H-310.359C-312.135 354.327 -313.574 355.767 -313.574 357.543V357.883C-313.574 359.659 -312.135 361.099 -310.359 361.099H-308.159C-307.598 361.099 -307.143 361.553 -307.143 362.114C-307.143 362.675 -307.598 363.13 -308.159 363.13H-310.359C-312.135 363.13 -313.574 364.57 -313.574 366.345V366.686C-313.574 368.462 -312.135 369.901 -310.359 369.901H-308.159C-307.598 369.901 -307.143 370.356 -307.143 370.917C-307.143 371.478 -307.598 371.933 -308.159 371.933H-310.359C-312.135 371.933 -313.574 373.372 -313.574 375.148V375.489C-313.574 377.264 -312.135 378.704 -310.359 378.704H-308.159C-307.598 378.704 -307.143 379.159 -307.143 379.72C-307.143 380.281 -307.598 380.735 -308.159 380.735H-310.528C-312.397 380.735 -313.913 382.251 -313.913 384.12V517.519C-313.913 522.753 -318.155 526.996 -323.389 526.996C-328.623 526.996 -332.866 531.238 -332.866 536.472V593.864C-332.866 596.761 -335.215 599.11 -338.112 599.11C-341.009 599.11 -343.358 601.459 -343.358 604.356V657.193C-343.358 659.345 -345.787 660.474 -347.938 660.393C-348.069 660.388 -348.161 660.381 -348.291 660.362C-348.413 660.345 -348.536 660.328 -348.66 660.31C-352.607 659.758 -355.542 656.414 -355.542 652.429V530.134C-355.542 526.169 -357.885 522.579 -361.514 520.982L-363.694 520.022C-363.898 519.932 -364.119 519.886 -364.342 519.886H-364.849C-366.251 519.886 -367.388 518.749 -367.388 517.346V515.992C-367.388 515.338 -367.919 514.807 -368.573 514.807C-369.227 514.807 -369.757 515.338 -369.757 515.992C-369.757 516.646 -370.288 517.177 -370.942 517.177H-371.086C-371.66 517.177 -372.127 517.643 -372.127 518.218C-372.127 518.773 -372.562 519.23 -373.116 519.258L-376.979 519.451C-378.022 519.503 -378.896 518.672 -378.896 517.628C-378.896 516.937 -379.286 516.305 -379.904 515.995L-380.819 515.538C-381.334 515.281 -381.904 515.155 -382.48 515.172L-402.279 515.763C-403.394 515.796 -404.28 516.709 -404.28 517.824C-404.28 518.963 -405.203 519.886 -406.341 519.886H-406.649C-407.957 519.886 -409.018 520.946 -409.018 522.255V544.758C-409.018 550.281 -413.495 554.758 -419.018 554.758H-436.586C-442.109 554.758 -446.586 550.281 -446.586 544.758V386.49C-446.586 384.06 -448.556 382.09 -450.986 382.09C-453.416 382.09 -455.386 380.12 -455.386 377.69V348.415C-455.386 342.892 -459.863 338.415 -465.386 338.415H-480.43C-483.608 338.415 -486.185 335.838 -486.185 332.659C-486.185 329.48 -488.762 326.904 -491.941 326.904H-495.828C-500.97 326.904 -505.139 322.735 -505.139 317.593C-505.139 312.451 -509.307 308.283 -514.449 308.283H-571.968C-577.49 308.283 -581.968 312.76 -581.968 318.283V328.415C-581.968 333.938 -586.445 338.415 -591.968 338.415H-610.551C-616.074 338.415 -620.551 342.892 -620.551 348.415V640.233C-620.551 645.756 -625.028 650.233 -630.551 650.233H-631.535C-637.058 650.233 -641.535 654.71 -641.535 660.233V669.873C-641.535 675.294 -645.93 679.688 -651.35 679.688C-656.771 679.688 -661.166 675.294 -661.166 669.873V595.906C-661.166 590.383 -665.643 585.906 -671.166 585.906H-681.626C-687.149 585.906 -691.626 581.429 -691.626 575.906V555.475C-691.626 555.243 -691.757 555.031 -691.965 554.927C-692.172 554.823 -692.303 554.611 -692.303 554.379V550.834C-692.303 549.427 -692.77 548.06 -693.632 546.947L-698.334 540.871C-699.69 539.119 -700.426 536.966 -700.426 534.75V528.77C-700.426 527.851 -700.791 526.969 -701.441 526.318C-702.092 525.668 -702.457 524.786 -702.457 523.867V509.221C-702.457 508.94 -702.684 508.713 -702.965 508.713C-703.245 508.713 -703.472 508.94 -703.472 509.221V524.106C-703.472 524.872 -703.777 525.607 -704.318 526.149C-704.86 526.691 -705.164 527.426 -705.164 528.192V535.694C-705.164 537.745 -705.795 539.747 -706.971 541.427L-711.193 547.46C-711.895 548.464 -712.272 549.659 -712.272 550.885V552.86C-712.272 553.623 -712.653 554.335 -713.287 554.758C-713.922 555.181 -714.303 555.893 -714.303 556.655V557.524C-714.303 558.749 -714.945 559.883 -715.995 560.513L-716.412 560.764C-717.203 561.239 -717.687 562.094 -717.687 563.017C-717.687 563.978 -718.212 564.863 -719.056 565.323L-719.549 565.592C-720.696 566.218 -721.41 567.421 -721.41 568.728V599.757C-721.41 603.586 -724.706 606.583 -728.518 606.22C-731.882 606.22 -734.61 603.492 -734.61 600.128V538.35C-734.61 532.827 -739.087 528.35 -744.61 528.35H-766.24C-771.762 528.35 -776.24 532.827 -776.24 538.35V566.087C-776.24 571.61 -780.717 576.087 -786.24 576.087H-792.639C-798.162 576.087 -802.639 580.565 -802.639 586.087V606.39C-802.639 608.166 -804.079 609.605 -805.854 609.605C-807.63 609.605 -809.07 611.045 -809.07 612.821V650.742C-809.07 652.144 -810.206 653.28 -811.608 653.28C-813.01 653.28 -814.146 652.144 -814.146 650.742V634.658C-814.146 632.789 -815.662 631.274 -817.531 631.274C-819.4 631.274 -820.915 629.758 -820.915 627.889V456.078C-820.915 450.556 -825.393 446.078 -830.915 446.078H-878.791C-921.098 446.078 -955.281 475.872 -955.281 518.193V542.049C-955.281 547.572 -959.759 552.049 -965.281 552.049H-969.158C-981.342 552.049 -991.157 573.04 -991.157 584.552V624.321C-991.157 629.844 -995.635 634.321 -1001.16 634.321H-1017.03C-1022.56 634.321 -1027.03 629.844 -1027.03 624.321V586.765C-1027.03 581.242 -1031.51 576.765 -1037.03 576.765H-1041.06C-1046.59 576.765 -1051.06 581.242 -1051.06 586.765V673.765C-1051.06 676.663 -1053.41 679.011 -1056.31 679.011C-1059.21 679.011 -1061.56 676.663 -1061.56 673.765V625.009C-1061.56 623.42 -1062.84 622.132 -1064.43 622.132C-1066.02 622.132 -1067.31 620.844 -1067.31 619.255V586.765C-1067.31 581.242 -1071.79 576.765 -1077.31 576.765H-1078.63C-1084.15 576.765 -1088.63 572.287 -1088.63 566.765V531.24C-1088.63 525.717 -1093.11 521.24 -1098.63 521.24H-1125C-1130.52 521.24 -1135 525.717 -1135 531.24V733C-1135 738.523 -1130.52 743 -1125 743H1345C1350.52 743 1355 738.523 1355 733V355.525C1355 350.002 1350.52 345.525 1345 345.525H1326.57ZM946.149 537.322C946.149 537.976 945.618 538.507 944.964 538.507H942.764C942.577 538.507 942.426 538.355 942.426 538.168V537.322C942.426 536.667 942.956 536.137 943.611 536.137H944.964C945.618 536.137 946.149 536.667 946.149 537.322ZM946.149 531.566C946.149 532.221 945.618 532.751 944.964 532.751H943.611C942.956 532.751 942.426 532.221 942.426 531.566C942.426 530.912 942.956 530.381 943.611 530.381H944.964C945.618 530.381 946.149 530.912 946.149 531.566ZM946.149 525.472C946.149 526.126 945.618 526.657 944.964 526.657H943.611C942.956 526.657 942.426 526.126 942.426 525.472C942.426 524.818 942.956 524.287 943.611 524.287H944.964C945.618 524.287 946.149 524.818 946.149 525.472ZM946.149 519.378C946.149 520.032 945.618 520.563 944.964 520.563H943.611C942.956 520.563 942.426 520.032 942.426 519.378C942.426 518.723 942.956 518.193 943.611 518.193H944.964C945.618 518.193 946.149 518.723 946.149 519.378ZM946.149 513.284C946.149 513.938 945.618 514.469 944.964 514.469H943.611C942.956 514.469 942.426 513.938 942.426 513.284C942.426 512.629 942.956 512.099 943.611 512.099H944.964C945.618 512.099 946.149 512.629 946.149 513.284ZM946.149 507.189C946.149 507.844 945.618 508.374 944.964 508.374H943.611C942.956 508.374 942.426 507.844 942.426 507.189C942.426 506.535 942.956 506.005 943.611 506.005H944.964C945.618 506.005 946.149 506.535 946.149 507.189ZM946.149 501.434C946.149 502.088 945.618 502.619 944.964 502.619H943.611C942.956 502.619 942.426 502.088 942.426 501.434C942.426 500.779 942.956 500.249 943.611 500.249H944.964C945.618 500.249 946.149 500.779 946.149 501.434Z" fill="url(#paint2_linear)"/>
<path d="M1099.89 496.501C1041.11 496.501 993.564 597.395 993.564 721.746H1206.33C1206.33 597.269 1158.66 496.501 1099.89 496.501Z" fill="url(#paint3_linear)"/>
<path d="M1099.89 496.501C1041.11 496.501 993.564 597.395 993.564 721.746H1206.33C1206.33 597.269 1158.66 496.501 1099.89 496.501Z" fill="url(#paint4_linear)"/>
<mask id="mask1" mask-type="alpha" maskUnits="userSpaceOnUse" x="993" y="496" width="214" height="226">
<path d="M1099.89 496.501C1041.11 496.501 993.564 597.395 993.564 721.746H1206.33C1206.33 597.269 1158.66 496.501 1099.89 496.501Z" fill="url(#paint5_linear)"/>
</mask>
<g mask="url(#mask1)">
<path opacity="0.2" d="M1010.25 516.899C1043.94 501.553 1111.97 476.451 1114.6 498.812C1117.89 526.764 923.149 646.793 989.705 621.307C1056.26 595.822 1113.78 525.942 1128.57 550.605C1143.36 575.269 998.743 677.211 1047.22 672.279C1095.7 667.346 1155.68 553.894 1174.58 571.981C1193.48 590.067 1050.51 715.851 1082.56 726.538C1114.6 737.226 1202.52 558.827 1237.85 554.716" stroke="url(#paint6_linear)" stroke-width="2"/>
</g>
<path opacity="0.3" d="M1192.54 721.746H1206.33C1206.33 597.269 1158.66 496.501 1099.89 496.501C1097.57 496.501 1095.27 496.658 1092.99 496.966C1148.55 504.484 1192.54 602.176 1192.54 721.746Z" fill="#C9D983"/>
<path d="M1217.82 557.573C1174.82 557.573 1140.01 631.406 1140.01 722.403H1295.64C1295.52 631.406 1260.71 557.573 1217.82 557.573Z" fill="url(#paint7_linear)"/>
<mask id="mask2" mask-type="alpha" maskUnits="userSpaceOnUse" x="1140" y="557" width="156" height="166">
<path d="M1217.82 557.573C1174.82 557.573 1140.01 631.406 1140.01 722.403H1295.64C1295.52 631.406 1260.71 557.573 1217.82 557.573Z" fill="url(#paint8_linear)"/>
</mask>
<g mask="url(#mask2)">
<path opacity="0.2" d="M1193.37 520.142C1162.84 569.873 1113.92 659.132 1162.51 618.321C1223.25 567.306 1281.1 583.669 1257 618.321C1232.89 652.972 1162.51 634.684 1169.26 671.26C1174.66 700.521 1253.14 657.143 1291.7 631.796" stroke="url(#paint9_linear)" stroke-width="2"/>
</g>
<path opacity="0.3" fill-rule="evenodd" clip-rule="evenodd" d="M1279.23 722.403H1295.64C1295.52 631.406 1260.71 557.573 1217.82 557.573C1215.05 557.573 1212.31 557.881 1209.6 558.481C1248.64 567.178 1279.11 637.281 1279.23 722.403Z" fill="#C9D983"/>
<path d="M911.478 477.457C843.311 477.457 788.02 586.247 788.02 720.433H1034.94C1034.81 586.247 979.645 477.457 911.478 477.457Z" fill="url(#paint10_linear)"/>
<mask id="mask3" mask-type="alpha" maskUnits="userSpaceOnUse" x="788" y="477" width="247" height="244">
<path d="M911.478 477.457C843.311 477.457 788.02 586.247 788.02 720.433H1034.94C1034.81 586.247 979.645 477.457 911.478 477.457Z" fill="url(#paint11_linear)"/>
</mask>
<g mask="url(#mask3)">
<path opacity="0.2" d="M798.526 526.485C811.538 511.129 840.768 483.768 853.594 497.169C869.627 513.921 835.471 571.853 857.777 578.833C880.083 585.813 911.45 476.23 938.636 486.7C965.821 497.169 821.529 666.779 871.718 673.061C921.906 679.343 944.909 527.881 966.518 538.35C988.127 548.82 917.724 630.484 942.121 654.215C966.518 677.947 979.066 566.27 998.583 578.833C1018.1 591.397 1004.16 654.215 985.339 696.792" stroke="url(#paint12_linear)" stroke-width="2"/>
</g>
<path opacity="0.2" d="M1007.35 720.433H1034.94C1034.81 586.247 979.645 477.457 911.478 477.457C906.816 477.457 902.214 477.966 897.687 478.957C959.352 492.456 1007.24 595.423 1007.35 720.433Z" fill="#C9D983"/>
<path d="M1087.41 571.526H1085.12V719.23H1087.41V571.526Z" fill="#0C5E59"/>
<path d="M1102.91 562.174C1098.01 562.174 1093.45 565.709 1090.26 568.903C1092.42 565.823 1095.39 562.06 1097.67 561.375C1101.66 560.121 1104.85 560.691 1104.85 560.691C1104.85 560.691 1101.2 555.558 1095.73 557.954C1093.33 558.98 1091.28 562.402 1089.8 565.709C1090.6 562.63 1091.28 558.98 1090.71 555.672C1089.34 547.232 1080 546.548 1080 546.548C1080 546.548 1085.24 553.848 1086.15 562.402C1086.27 563.542 1086.38 564.683 1086.49 565.709C1085.7 560.805 1083.76 554.874 1078.97 551.68C1067.11 543.81 1059.7 557.611 1059.7 557.611C1059.7 557.611 1066.43 553.391 1075.32 557.84C1082.39 561.375 1085.35 568.903 1086.27 571.983C1085.13 569.701 1080.22 561.033 1072.47 559.778C1060.73 557.84 1057.76 572.667 1057.76 572.667C1057.76 572.667 1064.49 567.306 1072.81 567.648C1079.31 567.991 1083.87 570.614 1086.15 572.667C1084.9 572.325 1082.28 571.754 1079.08 571.64C1068.71 571.526 1066.54 585.441 1066.54 585.441L1086.27 573.351C1085.35 574.948 1083.64 578.37 1082.73 580.651C1081.36 583.845 1082.28 591.03 1082.28 591.03C1082.28 591.03 1085.47 585.555 1086.38 582.02C1087.29 578.598 1087.06 575.062 1086.95 573.351L1100.29 587.837C1100.29 587.837 1103.59 579.054 1093.45 574.834C1092.08 574.264 1090.94 573.807 1090.03 573.465C1092.42 573.807 1095.39 574.834 1098.46 576.773C1104.28 580.537 1108.04 585.783 1108.04 585.783C1108.04 585.783 1111.69 575.176 1102.8 570.842C1099.83 569.473 1096.53 569.587 1093.68 570.272C1095.84 569.017 1098.69 568.105 1102 568.561C1110.09 569.587 1112.37 575.29 1112.37 575.29C1112.37 575.29 1114.65 562.174 1102.91 562.174Z" fill="url(#paint13_linear)"/>
<path d="M1000.42 480.744H996.77V721.975H1000.42V480.744Z" fill="#0C5E59"/>
<path d="M1023.99 459.951C1015.09 459.951 1006.69 466.332 1000.84 472.203C1004.78 466.588 1010.26 459.823 1014.45 458.419C1021.58 456.122 1027.56 457.27 1027.56 457.27C1027.56 457.27 1020.81 447.826 1010.89 452.293C1006.44 454.207 1002.75 460.461 1000.08 466.46C1001.6 460.844 1002.62 454.207 1001.73 448.081C999.315 432.765 982.14 431.488 982.14 431.488C982.14 431.488 991.682 444.762 993.463 460.461C993.717 462.503 993.844 464.545 993.972 466.46C992.445 457.398 988.883 446.549 980.232 440.806C958.733 426.511 945.248 451.782 945.248 451.782C945.248 451.782 957.588 444.124 973.744 452.293C986.466 458.674 991.936 472.586 993.717 478.074C991.554 473.863 982.776 458.164 968.528 455.739C947.156 452.165 941.686 479.351 941.686 479.351C941.686 479.351 953.898 469.523 969.037 470.161C980.741 470.672 989.264 475.522 993.463 479.351C991.3 478.713 986.339 477.564 980.614 477.564C961.659 477.309 957.715 502.708 957.715 502.708L993.717 480.627C992.19 483.563 989.01 489.689 987.229 494.029C984.812 499.9 986.339 512.918 986.339 512.918C986.339 512.918 992.19 502.963 993.844 496.454C995.498 490.2 995.116 483.69 994.862 480.627L1019.29 507.047C1019.29 507.047 1025.27 490.965 1006.95 483.18C1004.53 482.159 1002.37 481.265 1000.71 480.627C1005.17 481.265 1010.51 483.052 1015.98 486.626C1026.67 493.518 1033.41 502.963 1033.41 502.963C1033.41 502.963 1040.02 483.435 1023.74 475.777C1018.4 473.224 1012.29 473.607 1007.07 474.756C1011.02 472.459 1016.11 470.799 1022.34 471.565C1037.1 473.352 1041.17 483.946 1041.17 483.946C1041.17 483.946 1045.37 459.823 1023.99 459.951Z" fill="url(#paint14_linear)"/>
<g clip-path="url(#clip0)">
<path d="M1316 673.179H1189.92V726.845H1316V673.179Z" fill="#F9F8EF"/>
<path fill-rule="evenodd" clip-rule="evenodd" d="M1253.66 659.19V659.313C1254.66 656.515 1256.66 652.061 1260.03 645.416C1266.72 632.698 1274.18 622.926 1274.18 622.926C1274.18 622.926 1270.91 633.783 1264.23 646.502C1258.32 657.887 1255.08 662.479 1253.66 663.174V663.823C1255.37 661.563 1259.14 657.686 1265.78 651.62C1276.82 641.693 1287.71 634.559 1287.71 634.559C1287.71 634.559 1280.71 643.71 1269.67 653.792C1263.2 659.618 1258.91 663.113 1256.24 664.906C1258.96 663.215 1263.2 660.897 1269.36 657.824C1283.04 651 1295.48 646.812 1295.48 646.812C1295.48 646.812 1285.84 653.792 1272.16 660.616C1261.74 665.932 1256.1 668.189 1253.66 668.62V669.086C1255.85 667.868 1261.46 665.912 1272.16 662.943C1287.24 658.755 1300.45 656.894 1300.45 656.894C1300.45 656.894 1288.95 662.012 1273.87 666.2C1268.95 667.565 1265.03 668.567 1261.95 669.267C1265.07 668.748 1269.09 668.187 1274.18 667.596C1290.19 665.579 1303.56 665.734 1303.56 665.734C1303.56 665.734 1290.97 669.147 1274.96 671.008C1262.06 672.632 1255.72 672.847 1253.66 672.384V672.714H1252.1V672.492C1251.82 672.575 1251.42 672.645 1250.86 672.714H1246.35C1242.93 672.559 1237.8 672.249 1230.65 671.318C1214.63 669.302 1202.04 666.045 1202.04 666.045C1202.04 666.045 1215.41 665.89 1231.43 667.906C1236.24 668.465 1240.09 668.982 1243.13 669.457C1240.14 668.765 1236.38 667.799 1231.74 666.51C1216.5 662.322 1205.15 657.204 1205.15 657.204C1205.15 657.204 1218.37 659.065 1233.45 663.253C1244.4 666.296 1250.03 668.274 1252.1 669.485V668.938C1249.75 668.543 1244.09 666.238 1233.45 660.926C1219.77 654.102 1210.13 647.122 1210.13 647.122C1210.13 647.122 1222.56 651.31 1236.25 658.134C1242.03 661.018 1246.11 663.236 1248.85 664.896C1246.12 663.021 1241.95 659.599 1235.93 654.102C1224.9 644.02 1217.9 634.869 1217.9 634.869C1217.9 634.869 1228.78 641.849 1239.82 651.93C1244.57 656.266 1247.85 659.484 1249.96 661.792C1248.15 659.439 1245.33 654.785 1241.22 646.967C1234.54 634.249 1231.27 623.391 1231.27 623.391C1231.27 623.391 1238.89 633.163 1245.42 645.881C1249.18 653.216 1251.24 657.92 1252.1 660.648V659.191C1251.27 657.265 1250.7 651.703 1250.7 640.608C1250.7 626.338 1252.88 614.706 1252.88 614.706C1252.88 614.706 1255.06 626.338 1255.06 640.608C1255.06 651.7 1254.49 657.263 1253.66 659.19ZM1252.1 663.732C1251.87 663.713 1251.57 663.538 1251.19 663.186C1251.55 663.614 1251.85 663.998 1252.1 664.342V663.732ZM1252.1 666.675C1251.72 666.575 1251.23 666.36 1250.62 666.015C1251.21 666.411 1251.7 666.765 1252.1 667.077V666.675ZM1253.66 666.646C1254.08 666.321 1254.61 665.953 1255.24 665.541C1254.59 665.928 1254.07 666.182 1253.66 666.315V666.646ZM1252.1 670.882C1251.6 670.916 1250.9 670.881 1249.96 670.767C1250.95 671.021 1251.65 671.259 1252.1 671.478V670.882ZM1253.66 671.231C1254.24 670.961 1255.17 670.663 1256.5 670.34C1255.23 670.53 1254.3 670.604 1253.66 670.58V671.231ZM1244.48 672.714H1215.41C1219.92 672.404 1225.36 672.249 1231.11 672.249C1236.71 672.249 1241.22 672.404 1244.48 672.714ZM1261.12 672.714H1290.19C1285.68 672.404 1280.24 672.094 1274.49 672.249C1268.74 672.404 1264.38 672.559 1261.12 672.714Z" fill="url(#paint15_linear)"/>
</g>
<path d="M922.06 693.595C919.78 683.102 916.018 673.179 911.001 664.054C910.317 662.8 909.519 661.431 908.721 660.176C902.907 650.482 895.724 641.813 887.402 634.285C886.376 633.259 885.236 632.346 884.096 631.434C875.203 624.02 865.056 617.975 854.112 613.641C852.744 613.071 851.376 612.615 850.007 612.158C839.063 608.28 827.206 606.113 815.007 605.885C814.323 605.885 813.525 605.885 812.841 605.885C812.157 605.885 811.359 605.885 810.675 605.885C798.362 606.113 786.619 608.28 775.675 612.158C774.307 612.615 772.939 613.185 771.57 613.641C760.626 617.975 750.479 624.02 741.587 631.434C740.447 632.346 739.306 633.373 738.28 634.285C729.958 641.813 722.661 650.482 716.961 660.176C716.163 661.431 715.479 662.8 714.681 664.054C709.665 673.179 705.902 683.102 703.622 693.595C703.28 695.078 703.052 696.561 702.71 698.043C701.57 704.431 701 710.932 701 717.547H924.568C924.568 710.932 923.998 704.316 922.858 698.043C922.63 696.561 922.402 695.078 922.06 693.595Z" fill="url(#paint16_linear)"/>
<path opacity="0.3" d="M810.676 605.771V717.547H815.008V605.771C814.324 605.771 813.526 605.771 812.842 605.771C812.044 605.771 811.36 605.771 810.676 605.771Z" fill="url(#paint17_linear)"/>
<path opacity="0.3" d="M771.57 613.641L799.388 717.661H803.834L775.561 612.158C774.306 612.615 772.938 613.071 771.57 613.641Z" fill="url(#paint18_linear)"/>
<path opacity="0.3" d="M738.28 634.285L786.391 717.547H791.294L741.586 631.434C740.446 632.346 739.306 633.373 738.28 634.285Z" fill="url(#paint19_linear)"/>
<path opacity="0.3" d="M714.681 664.054L768.264 717.661H774.307L716.847 660.176C716.163 661.431 715.365 662.8 714.681 664.054Z" fill="url(#paint20_linear)"/>
<path opacity="0.3" d="M702.71 698.043L736.57 717.547H745.235L703.622 693.481C703.28 695.078 703.052 696.561 702.71 698.043Z" fill="url(#paint21_linear)"/>
<path opacity="0.3" d="M821.734 717.661H826.181L853.998 613.641C852.63 613.071 851.262 612.615 849.894 612.158L821.734 717.661Z" fill="url(#paint22_linear)"/>
<path opacity="0.3" d="M834.274 717.661H839.291L887.402 634.399C886.376 633.373 885.236 632.461 884.096 631.548L834.274 717.661Z" fill="url(#paint23_linear)"/>
<g opacity="0.3">
<path d="M851.262 717.661H857.304L910.888 664.054C910.204 662.8 909.406 661.431 908.607 660.176L851.262 717.661Z" fill="url(#paint24_linear)"/>
</g>
<path d="M880.447 717.661H889.112L922.972 698.157C922.744 696.675 922.402 695.192 922.06 693.709L880.447 717.661Z" fill="#084F15"/>
<path d="M1005.74 702.378C1004.26 695.762 1001.87 689.375 998.673 683.558C998.217 682.76 997.761 681.961 997.305 681.049C993.657 674.89 989.097 669.415 983.738 664.625C983.054 664.054 982.37 663.37 981.572 662.8C975.872 658.123 969.488 654.245 962.533 651.508C961.735 651.166 960.823 650.824 959.911 650.596C952.956 648.086 945.432 646.718 937.68 646.604C937.223 646.604 936.767 646.604 936.311 646.604C935.855 646.604 935.399 646.604 934.943 646.604C927.191 646.718 919.666 648.2 912.712 650.596C911.8 650.938 911.002 651.166 910.09 651.508C903.135 654.245 896.751 658.123 891.051 662.8C890.367 663.37 889.682 664.054 888.884 664.625C883.526 669.415 878.966 674.89 875.318 681.049C874.862 681.847 874.405 682.646 873.949 683.558C870.757 689.375 868.363 695.648 866.881 702.378C866.653 703.29 866.539 704.316 866.311 705.229C865.627 709.221 865.171 713.441 865.171 717.661H1007.22C1007.22 713.441 1006.88 709.221 1006.08 705.229C1006.2 704.202 1005.97 703.29 1005.74 702.378Z" fill="url(#paint25_linear)"/>
<path opacity="0.3" d="M934.942 646.604V717.661H937.679V646.604C937.223 646.604 936.767 646.604 936.31 646.604C935.854 646.604 935.398 646.604 934.942 646.604Z" fill="url(#paint26_linear)"/>
<path opacity="0.3" d="M910.203 651.508L927.874 717.547H930.724L912.825 650.482C911.913 650.938 911.001 651.166 910.203 651.508Z" fill="url(#paint27_linear)"/>
<path opacity="0.3" d="M888.998 664.739L919.552 717.661H922.744L891.164 662.914C890.366 663.484 889.682 664.054 888.998 664.739Z" fill="url(#paint28_linear)"/>
<path opacity="0.3" d="M873.949 683.558L908.037 717.547H911.914L875.431 681.049C874.975 681.961 874.405 682.76 873.949 683.558Z" fill="url(#paint29_linear)"/>
<path opacity="0.3" d="M866.425 705.229L887.972 717.661H893.444L866.995 702.377C866.767 703.29 866.539 704.202 866.425 705.229Z" fill="url(#paint30_linear)"/>
<path opacity="0.3" d="M942.011 717.661H944.861L962.532 651.622C961.734 651.28 960.822 650.938 959.91 650.71L942.011 717.661Z" fill="url(#paint31_linear)"/>
<path opacity="0.3" d="M949.992 717.661H953.184L983.738 664.739C983.054 664.168 982.37 663.484 981.572 662.914L949.992 717.661Z" fill="url(#paint32_linear)"/>
<path opacity="0.3" d="M960.822 717.661H964.698L998.787 683.672C998.331 682.874 997.875 682.075 997.419 681.163L960.822 717.661Z" fill="url(#paint33_linear)"/>
<path opacity="0.3" d="M979.292 717.661H984.764L1006.31 705.229C1006.2 704.316 1005.97 703.29 1005.74 702.377L979.292 717.661Z" fill="url(#paint34_linear)"/>
<path d="M1291 710H-5V805.58H1291V710Z" fill="url(#paint35_linear)"/>
<mask id="mask4" mask-type="alpha" maskUnits="userSpaceOnUse" x="-5" y="710" width="1296" height="96">
<path d="M1291 710H-5V805.58H1291V710Z" fill="url(#paint36_linear)"/>
</mask>
<g mask="url(#mask4)">
<path opacity="0.7" fill-rule="evenodd" clip-rule="evenodd" d="M545.791 748.025C537.187 757.086 528.408 763.265 519.025 762.839C516.698 762.733 514.829 762.254 513.43 761.366C512.001 760.458 511.13 759.165 510.754 757.599C510.386 756.066 510.501 754.313 510.938 752.437C511.376 750.553 512.154 748.482 513.177 746.282C516.923 738.224 524.178 727.992 531.203 718.085L531.203 718.084L531.204 718.084C531.817 717.218 532.429 716.356 533.036 715.497C536.834 710.13 540.475 704.913 543.39 700.215C546.318 695.496 548.458 691.388 549.315 688.223C549.744 686.64 549.823 685.395 549.6 684.466C549.39 683.592 548.904 682.95 548.02 682.516C547.086 682.057 545.656 681.81 543.564 681.929C541.484 682.048 538.837 682.524 535.533 683.425C529.026 685.199 521.777 689.292 513.941 695.133C506.114 700.967 497.76 708.5 489.043 717.091C476.755 729.201 463.797 743.36 450.618 757.761L450.618 757.761L450.617 757.762C445.087 763.805 439.517 769.891 433.942 775.886C415.111 796.134 396.221 815.336 378.669 828.156C361.188 840.925 344.682 847.626 330.784 842.15C323.913 839.444 320.453 835.555 320.041 830.647C319.642 825.885 322.166 820.516 326.295 814.91C334.583 803.654 349.982 790.61 364.933 778.083C365.261 777.809 365.588 777.534 365.916 777.26L366.607 776.681L366.637 776.656C373.548 770.868 380.316 765.2 386.23 759.858C392.638 754.069 397.992 748.708 401.421 744.036C403.136 741.7 404.337 739.58 404.96 737.703C405.581 735.831 405.607 734.273 405.085 732.979C404.564 731.689 403.431 730.497 401.399 729.491C399.359 728.481 396.474 727.691 392.583 727.192C380.21 725.606 364.336 729.338 346.656 736.592C329.006 743.835 309.681 754.534 290.457 766.734C252.01 791.134 214.063 821.475 190.872 841.969L189.548 840.471C212.797 819.925 250.828 789.516 289.385 765.046C308.663 752.811 328.097 742.045 345.897 734.742C363.668 727.45 379.938 723.554 392.837 725.208C396.843 725.722 399.971 726.552 402.287 727.699C404.613 728.851 406.182 730.355 406.939 732.229C407.694 734.1 407.575 736.173 406.858 738.333C406.143 740.486 404.812 742.797 403.034 745.219C399.477 750.064 393.997 755.537 387.571 761.342C381.628 766.71 374.833 772.401 367.93 778.182L367.928 778.184L367.928 778.184L367.905 778.203C367.343 778.673 366.78 779.145 366.217 779.617C351.198 792.2 336.019 805.076 327.905 816.095C323.832 821.626 321.699 826.483 322.034 830.48C322.357 834.33 325.022 837.731 331.517 840.29C344.348 845.344 360.04 839.287 377.49 826.541C394.869 813.847 413.644 794.776 432.478 774.524C438.026 768.558 443.58 762.489 449.102 756.455L449.102 756.455C462.297 742.036 475.312 727.815 487.639 715.667C496.387 707.045 504.815 699.441 512.745 693.53C520.666 687.626 528.149 683.366 535.007 681.495C538.386 680.574 541.181 680.062 543.449 679.933C545.705 679.804 547.529 680.047 548.902 680.721C550.325 681.42 551.197 682.552 551.545 683.999C551.88 685.392 551.715 687.012 551.246 688.746C550.306 692.213 548.028 696.533 545.09 701.269C542.139 706.025 538.465 711.288 534.669 716.653C534.113 717.438 533.554 718.226 532.995 719.015L532.891 719.162L532.869 719.194C525.803 729.16 518.655 739.243 514.99 747.125C514.001 749.252 513.282 751.187 512.886 752.89C512.488 754.6 512.43 756.014 512.699 757.133C512.959 758.218 513.532 759.061 514.502 759.677C515.502 760.312 516.987 760.744 519.115 760.841C527.552 761.225 535.783 755.659 544.341 746.647C551.284 739.336 558.277 729.94 565.624 720.067L565.624 720.067L565.625 720.067L565.629 720.06L565.646 720.038C567.317 717.792 569.007 715.522 570.718 713.246C579.932 700.995 589.76 688.613 600.661 679.295C611.567 669.972 623.637 663.64 637.33 663.64V665.64C624.293 665.64 612.67 671.66 601.96 680.815C591.244 689.976 581.53 702.198 572.317 714.449C570.617 716.709 568.933 718.972 567.263 721.216L567.261 721.218L567.261 721.219C559.91 731.097 552.825 740.617 545.791 748.025ZM931.118 694.721C929.124 691.595 925.504 689.744 919.241 689.939C906.784 690.329 894.887 700.391 883.226 715.694C871.611 730.938 860.459 751.067 849.413 771.032L849.26 771.307L849.259 771.309C838.288 791.138 827.414 810.792 816.346 825.1C810.785 832.29 805.134 838.187 799.348 842.084C793.55 845.989 787.56 847.924 781.373 847.071C775.271 846.229 771.219 843.668 768.888 839.716C766.59 835.818 766.065 830.733 766.618 825.025C767.723 813.619 773.202 799.103 778.757 784.964C779.204 783.825 779.652 782.689 780.098 781.557C785.229 768.538 790.146 756.064 791.686 746.593C792.525 741.432 792.318 737.391 790.803 734.673C789.35 732.067 786.546 730.44 781.51 730.44C776.557 730.44 771.739 732.628 766.95 736.613C762.156 740.601 757.459 746.335 752.774 753.286C744.923 764.937 737.21 779.845 729.19 795.348L729.189 795.349L729.189 795.35C727.632 798.358 726.064 801.389 724.482 804.423C714.765 823.046 704.496 841.763 692.981 855.826C681.48 869.872 668.568 879.48 653.53 879.48C646.101 879.48 641.24 877.546 638.625 873.821C636.041 870.141 635.879 865.019 637.059 859.196C638.246 853.339 640.839 846.537 644.074 839.287C646.814 833.146 650.036 826.636 653.291 820.061L653.292 820.06L653.292 820.06L653.325 819.994C653.904 818.823 654.484 817.65 655.063 816.477C662.782 800.837 670.18 785.207 671.674 773.108C672.418 767.081 671.671 762.107 668.942 758.459C666.223 754.823 661.374 752.289 653.431 751.495C627.854 748.937 601.905 760.128 579.778 775.301C557.669 790.461 539.518 809.501 529.582 822.39L527.998 821.169C538.042 808.139 556.341 788.947 578.647 773.651C600.935 758.368 627.366 746.879 653.63 749.505C661.886 750.331 667.365 753.011 670.544 757.261C673.712 761.497 674.433 767.079 673.659 773.353C672.115 785.858 664.528 801.818 656.857 817.363C656.265 818.563 655.672 819.76 655.08 820.955L655.08 820.956C651.824 827.533 648.623 834.001 645.9 840.102C642.68 847.319 640.161 853.958 639.019 859.593C637.87 865.262 638.163 869.683 640.262 872.672C642.33 875.618 646.38 877.48 653.53 877.48C667.652 877.48 680.052 868.458 691.434 854.559C702.801 840.677 712.985 822.134 722.708 803.497C724.282 800.482 725.844 797.463 727.396 794.462C735.415 778.961 743.193 763.925 751.116 752.169C755.847 745.148 760.668 739.238 765.67 735.075C770.677 730.91 775.933 728.44 781.51 728.44C787.004 728.44 790.63 730.256 792.55 733.699C794.407 737.031 794.517 741.646 793.66 746.914C792.083 756.611 787.084 769.29 781.985 782.225C781.529 783.381 781.073 784.538 780.618 785.696C775.035 799.907 769.681 814.146 768.609 825.218C768.073 830.748 768.625 835.332 770.611 838.7C772.564 842.012 776.004 844.311 781.647 845.089C787.206 845.856 792.706 844.146 798.23 840.425C803.765 836.698 809.264 830.988 814.764 823.877C825.738 809.689 836.552 790.143 847.569 770.233L847.663 770.063C858.689 750.136 869.913 729.866 881.636 714.482C893.313 699.157 905.716 688.361 919.179 687.94C925.876 687.731 930.305 689.728 932.804 693.645C935.24 697.463 935.676 702.872 935.038 709.115C934.396 715.392 932.643 722.719 930.482 730.526C929.401 734.435 928.214 738.477 927.008 742.58L926.953 742.765L926.95 742.776L926.948 742.783C925.761 746.823 924.556 750.921 923.413 755.021C921.088 763.362 919.026 771.679 917.89 779.466C916.753 787.26 916.553 794.458 917.908 800.58C919.258 806.677 922.141 811.682 927.178 815.184C932.238 818.702 939.581 820.78 949.99 820.78V822.78C939.339 822.78 931.546 820.656 926.037 816.827C920.506 812.982 917.391 807.495 915.956 801.012C914.526 794.553 914.757 787.083 915.911 779.177C917.065 771.264 919.155 762.85 921.487 754.484C922.634 750.367 923.843 746.255 925.03 742.216L925.089 742.016C926.296 737.911 927.478 733.884 928.555 729.993C930.71 722.201 932.425 715.011 933.048 708.911C933.676 702.775 933.175 697.946 931.118 694.721ZM1244.17 789.093C1242.3 782.859 1238.38 776.044 1233.16 768.961C1227.94 761.869 1221.39 754.455 1214.21 747.021C1202.25 734.633 1188.48 722.138 1176.15 710.943L1176.15 710.942C1173.69 708.706 1171.28 706.522 1168.96 704.402C1161.97 698.023 1155.74 692.219 1150.94 687.275C1146.09 682.294 1142.82 678.301 1141.61 675.53C1141 674.13 1141.04 673.328 1141.3 672.885C1141.55 672.45 1142.23 671.963 1143.95 671.792C1147.36 671.453 1153.62 672.483 1163.56 675.322L1164.11 673.398C1154.2 670.567 1147.59 669.42 1143.75 669.802C1141.85 669.992 1140.31 670.59 1139.56 671.891C1138.82 673.184 1139.1 674.768 1139.78 676.329C1141.15 679.481 1144.69 683.715 1149.5 688.669C1154.35 693.66 1160.63 699.5 1167.61 705.878C1169.94 708.001 1172.34 710.183 1174.8 712.415L1174.82 712.436C1187.15 723.633 1200.86 736.074 1212.77 748.41C1219.92 755.81 1226.41 763.153 1231.55 770.147C1236.71 777.15 1240.48 783.751 1242.25 789.667C1243.15 792.673 1243.68 795.087 1243.88 796.979C1244.07 798.891 1243.92 800.163 1243.57 800.959C1243.26 801.679 1242.77 802.042 1242.05 802.171C1241.25 802.315 1240.11 802.17 1238.57 801.647C1235.52 800.604 1231.38 798.228 1226.34 794.869C1221.31 791.524 1215.46 787.26 1208.97 782.499C1208.17 781.91 1207.36 781.313 1206.54 780.71C1194.11 771.573 1179.6 760.907 1164.45 751.622C1148.32 741.729 1131.4 733.355 1115.43 730.08C1107.53 728.459 1101.98 727.776 1098.42 727.967C1096.66 728.061 1095.24 728.376 1094.27 729.025C1093.76 729.362 1093.37 729.798 1093.12 730.342C1092.88 730.883 1092.83 731.463 1092.9 732.043C1093.04 733.164 1093.66 734.382 1094.54 735.641C1095.44 736.922 1096.68 738.349 1098.2 739.902C1101.22 743.009 1105.42 746.706 1110.33 750.859C1113.24 753.319 1116.41 755.943 1119.74 758.706C1127.69 765.296 1136.6 772.681 1145.31 780.554C1157.67 791.726 1169.55 803.81 1177.58 815.855C1179.59 818.866 1180.91 821.271 1181.64 823.144C1182.38 825.057 1182.43 826.224 1182.18 826.883C1181.98 827.42 1181.49 827.854 1180.29 828.009C1179.06 828.168 1177.3 827.992 1175.02 827.463C1170.47 826.409 1164.18 824.042 1156.56 820.788C1148.96 817.539 1140.11 813.433 1130.44 808.926L1128.02 807.802C1109.24 799.047 1087.63 788.973 1066.46 780.878C1044.39 772.441 1022.69 766.109 1005.09 765.7C998.072 765.537 992.819 766.234 989.125 767.702C985.396 769.185 983.177 771.495 982.46 774.53C981.761 777.49 982.549 780.918 984.292 784.559C986.044 788.22 988.824 792.229 992.314 796.419C1006.26 813.16 1032.03 833.393 1051.48 846.901L1052.62 845.259C1033.19 831.767 1007.61 811.662 993.851 795.139C990.415 791.013 987.748 787.148 986.096 783.696C984.434 780.224 983.861 777.3 984.407 774.989C984.935 772.752 986.569 770.871 989.864 769.561C993.195 768.236 998.137 767.539 1005.05 767.7C1022.28 768.101 1043.71 774.324 1065.74 782.746C1086.85 790.815 1108.4 800.862 1127.2 809.624L1129.59 810.739C1139.26 815.243 1148.14 819.363 1155.78 822.627C1163.4 825.884 1169.83 828.314 1174.57 829.411C1176.92 829.958 1178.96 830.197 1180.54 829.993C1182.15 829.785 1183.5 829.078 1184.06 827.58C1184.57 826.205 1184.29 824.443 1183.5 822.418C1182.7 820.352 1181.29 817.809 1179.24 814.745C1171.07 802.49 1159.05 790.274 1146.66 779.07C1137.91 771.168 1128.95 763.735 1120.98 757.136L1120.98 757.134C1117.66 754.379 1114.51 751.769 1111.62 749.331C1106.71 745.181 1102.58 741.538 1099.63 738.506C1098.15 736.99 1096.99 735.649 1096.18 734.492C1095.35 733.313 1094.96 732.424 1094.88 731.798C1094.85 731.505 1094.89 731.302 1094.95 731.154C1095.02 731.008 1095.14 730.849 1095.38 730.689C1095.9 730.343 1096.88 730.053 1098.53 729.964C1101.81 729.788 1107.14 730.421 1115.03 732.04C1130.65 735.245 1147.34 743.476 1163.41 753.327C1178.48 762.566 1192.92 773.186 1205.36 782.329L1205.37 782.33C1206.18 782.931 1206.99 783.524 1207.79 784.111C1214.27 788.868 1220.16 793.159 1225.23 796.534C1230.28 799.896 1234.6 802.405 1237.93 803.54C1239.58 804.105 1241.11 804.371 1242.4 804.14C1243.78 803.894 1244.82 803.096 1245.41 801.76C1245.96 800.498 1246.08 798.819 1245.86 796.774C1245.65 794.709 1245.09 792.162 1244.17 789.093Z" fill="url(#paint37_linear)"/>
<path opacity="0.1" d="M383.158 743.448C249.928 743.448 227.558 787.701 -7.42969 787.701V857.42H1291V708.38C1005.91 708.38 1042.61 770.584 797.032 770.584C551.46 770.584 498.535 743.448 383.158 743.448Z" fill="url(#paint38_linear)"/>
</g>
<path opacity="0.2" d="M470.507 415.869C584.589 301.787 584.629 116.784 470.598 2.65287C356.566 -111.478 171.644 -111.519 57.5626 2.56277C-56.5188 116.644 -56.5592 301.647 57.4724 415.778C171.504 529.91 356.426 529.95 470.507 415.869Z" fill="url(#paint39_linear)"/>
<path d="M74.4381 434.741H79.9824V801.347H74.4381V434.741Z" fill="#0C5E59"/>
<path d="M38.6076 403.141C52.141 403.141 64.9012 412.839 73.7946 421.762C67.8012 413.227 59.4878 402.947 53.1077 400.813C42.281 397.322 33.1942 399.068 33.1942 399.068C33.1942 399.068 43.4409 384.714 58.5211 391.503C65.2878 394.412 70.8945 403.917 74.9545 413.033C72.6345 404.499 71.0879 394.412 72.4412 385.102C76.1146 361.826 102.215 359.886 102.215 359.886C102.215 359.886 87.7147 380.059 85.008 403.917C84.6213 407.02 84.4279 410.124 84.2346 413.033C86.5546 399.262 91.9681 382.774 105.115 374.046C137.788 352.321 158.282 390.727 158.282 390.727C158.282 390.727 139.528 379.089 114.975 391.503C95.6414 401.201 87.328 422.344 84.6213 430.684C87.908 424.284 101.248 400.425 122.902 396.74C155.382 391.309 163.695 432.624 163.695 432.624C163.695 432.624 145.135 417.689 122.128 418.658C104.341 419.434 91.388 426.805 85.008 432.624C88.2947 431.654 95.8347 429.909 104.535 429.909C133.342 429.521 139.335 468.12 139.335 468.12L84.6213 434.564C86.9413 439.025 91.7747 448.336 94.4814 454.93C98.1548 463.853 95.8347 483.638 95.8347 483.638C95.8347 483.638 86.9413 468.508 84.428 458.616C81.9146 449.111 82.4947 439.219 82.8813 434.564L45.761 474.715C45.761 474.715 36.6743 450.275 64.5145 438.443C68.1879 436.891 71.4745 435.534 73.9879 434.564C67.2211 435.534 59.1011 438.249 50.7877 443.68C34.5475 454.155 24.3008 468.508 24.3008 468.508C24.3008 468.508 14.2474 438.831 38.9943 427.193C47.1143 423.314 56.3944 423.896 64.3211 425.641C58.3277 422.15 50.5943 419.628 41.1209 420.792C18.6941 423.508 12.5074 439.607 12.5074 439.607C12.5074 439.607 6.12732 402.947 38.6076 403.141Z" fill="url(#paint40_linear)"/>
<path d="M232.375 777.59C229.988 766.607 226.05 756.221 220.8 746.671C220.084 745.358 219.249 743.925 218.414 742.612C212.328 732.465 204.81 723.392 196.099 715.513C195.025 714.439 193.832 713.483 192.639 712.528C183.331 704.769 172.711 698.442 161.256 693.905C159.824 693.308 158.392 692.831 156.96 692.353C145.505 688.295 133.095 686.026 120.327 685.788C119.611 685.788 118.776 685.788 118.06 685.788C117.344 685.788 116.508 685.788 115.792 685.788C102.905 686.026 90.6145 688.295 79.1591 692.353C77.7272 692.831 76.2953 693.428 74.8633 693.905C63.408 698.442 52.7879 704.769 43.4804 712.528C42.2871 713.483 41.0938 714.558 40.0199 715.513C31.309 723.392 23.6721 732.465 17.7058 742.612C16.8705 743.925 16.1545 745.358 15.3192 746.671C10.0688 756.221 6.13108 766.607 3.74454 777.59C3.38656 779.142 3.14788 780.694 2.7899 782.246C1.59663 788.931 1 795.736 1 802.66H235C235 795.736 234.403 788.812 233.21 782.246C232.971 780.694 232.733 779.142 232.375 777.59Z" fill="url(#paint41_linear)"/>
<path fill-rule="evenodd" clip-rule="evenodd" d="M115.793 685.668V802.66H120.327V685.668H118.06H115.793ZM74.8635 693.905L103.979 802.779H108.633L79.04 692.353C78.696 692.479 78.3438 692.604 77.9855 692.731L77.9854 692.731L77.9853 692.731L77.9852 692.731L77.9852 692.731L77.9851 692.731L77.985 692.731L77.9849 692.731C76.9764 693.09 75.92 693.465 74.8635 693.905ZM90.376 802.66L40.0201 715.513L40.3425 715.226L40.3427 715.226C41.3305 714.346 42.4055 713.389 43.4805 712.528L95.507 802.66H90.376ZM15.3194 746.671L71.4031 802.779H77.7274L17.5866 742.612C17.2286 743.269 16.8408 743.955 16.453 744.641C16.0652 745.328 15.6774 746.014 15.3194 746.671ZM38.2301 802.66L2.79004 782.246C2.98763 781.389 3.14888 780.533 3.3139 779.656L3.31392 779.656C3.44786 778.944 3.5843 778.219 3.74468 777.471L47.299 802.66H38.2301ZM127.367 802.779H132.021L161.137 693.905C159.705 693.308 158.273 692.831 156.841 692.353L127.367 802.779ZM145.744 802.779H140.493L192.639 712.648C193.832 713.603 195.026 714.558 196.1 715.632L145.744 802.779ZM158.273 802.779H164.597L220.681 746.671C219.965 745.358 219.13 743.925 218.294 742.612L158.273 802.779ZM197.89 802.779H188.821L232.375 777.709C232.733 779.261 233.091 780.813 233.33 782.365L197.89 802.779Z" fill="url(#paint42_linear)"/>
<path d="M66.373 687.941C55.4039 687.941 51.2904 678.339 51.2904 664.965C51.2904 651.59 47.5197 640.616 32.7799 639.931C13.584 639.245 15.298 657.763 15.298 680.397C15.298 709.203 5.01441 690.685 -9.38254 706.803C-21.7228 720.52 -5.95461 744.869 -1.15563 752.07H60.8883C62.945 748.298 68.0867 739.039 73.9141 727.722C86.9399 703.716 77.3421 687.941 66.373 687.941Z" fill="url(#paint43_linear)"/>
<path opacity="0.2" fill-rule="evenodd" clip-rule="evenodd" d="M36.893 692.4H33.8081V735.407L20.849 718.121L18.3809 719.973L33.8081 740.551V752.07H36.893V719.576L49.9655 703.356L47.5639 701.418L36.893 714.659V692.4Z" fill="white"/>
<path d="M79.0558 752.413H-12.8105V803.511H79.0558V752.413Z" fill="white"/>
<path d="M1286 1H1V801H1186C1241.23 801 1286 756.228 1286 701V1Z" fill="url(#paint44_linear)"/>
</g>
<path opacity="0.56" d="M1384.26 560.321C1497.12 447.411 1497.12 264.349 1384.26 151.44C1271.4 38.5309 1088.41 38.531 975.554 151.44C862.694 264.349 862.694 447.411 975.554 560.32C1088.41 673.23 1271.4 673.23 1384.26 560.321Z" fill="url(#paint45_linear)"/>
<path opacity="0.2" d="M1036.36 752.553C1118.9 669.977 1118.9 536.094 1036.36 453.518C953.817 370.941 819.993 370.941 737.452 453.518C654.912 536.094 654.912 669.977 737.452 752.553C819.993 835.129 953.817 835.13 1036.36 752.553Z" fill="url(#paint46_linear)"/>
<path d="M626.272 821.483C624.702 814.247 622.11 807.404 618.655 801.112C618.184 800.247 617.634 799.303 617.084 798.438C613.079 791.753 608.132 785.775 602.399 780.584C601.692 779.876 600.907 779.247 600.121 778.618C593.996 773.506 587.007 769.337 579.468 766.348C578.525 765.955 577.583 765.64 576.64 765.326C569.101 762.652 560.934 761.157 552.531 761C552.06 761 551.51 761 551.039 761C550.568 761 550.018 761 549.547 761C541.066 761.157 532.977 762.652 525.438 765.326C524.496 765.64 523.553 766.034 522.611 766.348C515.072 769.337 508.083 773.506 501.957 778.618C501.172 779.247 500.387 779.955 499.68 780.584C493.947 785.775 488.921 791.753 484.994 798.438C484.445 799.303 483.973 800.247 483.424 801.112C479.968 807.404 477.377 814.247 475.806 821.483C475.571 822.506 475.414 823.528 475.178 824.551C474.393 828.955 474 833.438 474 838H628C628 833.438 627.607 828.876 626.822 824.551C626.665 823.528 626.508 822.506 626.272 821.483Z" fill="#F4F6D5"/>
<path d="M780.307 844.259C777.86 832.983 773.821 822.319 768.436 812.513C767.702 811.164 766.845 809.694 765.988 808.345C759.747 797.926 752.036 788.611 743.102 780.521C742 779.418 740.777 778.437 739.553 777.457C730.007 769.489 719.114 762.993 707.365 758.335C705.896 757.722 704.428 757.232 702.959 756.742C691.21 752.574 678.482 750.245 665.387 750C664.652 750 663.796 750 663.061 750C662.327 750 661.47 750 660.736 750C647.518 750.245 634.912 752.574 623.163 756.742C621.695 757.232 620.226 757.845 618.757 758.335C607.008 762.993 596.116 769.489 586.57 777.457C585.346 778.437 584.122 779.54 583.02 780.521C574.086 788.611 566.253 797.926 560.134 808.345C559.277 809.694 558.543 811.164 557.686 812.513C552.301 822.319 548.263 832.983 545.815 844.259C545.448 845.853 545.203 847.446 544.836 849.04C543.612 855.904 543 862.891 543 870H783C783 862.891 782.388 855.781 781.164 849.04C780.919 847.446 780.675 845.853 780.307 844.259Z" fill="white"/>
<defs>
<linearGradient id="paint0_linear" x1="893.272" y1="1120.08" x2="-92.4885" y2="307.262" gradientUnits="userSpaceOnUse">
<stop stop-color="#FFEDBA"/>
<stop offset="1" stop-color="#EE4D47"/>
</linearGradient>
<linearGradient id="paint1_linear" x1="794" y1="991" x2="-62.5252" y2="259.836" gradientUnits="userSpaceOnUse">
<stop stop-color="#FFEDBA"/>
<stop offset="1" stop-color="#EE4D47"/>
</linearGradient>
<linearGradient id="paint2_linear" x1="866" y1="-211" x2="866" y2="893" gradientUnits="userSpaceOnUse">
<stop stop-color="#F4A984"/>
<stop offset="1" stop-color="#F4A984" stop-opacity="0"/>
</linearGradient>
<linearGradient id="paint3_linear" x1="1099.95" y1="448.562" x2="1099.95" y2="728.313" gradientUnits="userSpaceOnUse">
<stop offset="0.240793" stop-color="#2CA77F"/>
<stop offset="1" stop-color="#1B8877"/>
</linearGradient>
<linearGradient id="paint4_linear" x1="1099.95" y1="448.562" x2="1099.95" y2="728.313" gradientUnits="userSpaceOnUse">
<stop offset="0.240793" stop-color="#2CA77F"/>
<stop offset="1" stop-color="#1B8877"/>
</linearGradient>
<linearGradient id="paint5_linear" x1="1099.95" y1="448.562" x2="1099.95" y2="728.313" gradientUnits="userSpaceOnUse">
<stop offset="0.240793" stop-color="#2CA77F"/>
<stop offset="1" stop-color="#1B8877"/>
</linearGradient>
<linearGradient id="paint6_linear" x1="1106.84" y1="459.726" x2="1106.84" y2="713.866" gradientUnits="userSpaceOnUse">
<stop stop-color="white"/>
<stop offset="1" stop-color="white" stop-opacity="0"/>
</linearGradient>
<linearGradient id="paint7_linear" x1="1217.82" y1="528.679" x2="1217.82" y2="722.403" gradientUnits="userSpaceOnUse">
<stop offset="0.422311" stop-color="#2CA77F"/>
<stop offset="1" stop-color="#1B8877"/>
</linearGradient>
<linearGradient id="paint8_linear" x1="1217.82" y1="528.679" x2="1217.82" y2="722.403" gradientUnits="userSpaceOnUse">
<stop offset="0.422311" stop-color="#2CA77F"/>
<stop offset="1" stop-color="#1B8877"/>
</linearGradient>
<linearGradient id="paint9_linear" x1="1216.84" y1="558.23" x2="1216.84" y2="716.493" gradientUnits="userSpaceOnUse">
<stop stop-color="white"/>
<stop offset="1" stop-color="white" stop-opacity="0"/>
</linearGradient>
<linearGradient id="paint10_linear" x1="911.478" y1="477.457" x2="911.478" y2="769.803" gradientUnits="userSpaceOnUse">
<stop offset="0.422311" stop-color="#2CA77F"/>
<stop offset="1" stop-color="#1B8877"/>
</linearGradient>
<linearGradient id="paint11_linear" x1="911.478" y1="477.457" x2="911.478" y2="769.803" gradientUnits="userSpaceOnUse">
<stop offset="0.422311" stop-color="#2CA77F"/>
<stop offset="1" stop-color="#1B8877"/>
</linearGradient>
<linearGradient id="paint12_linear" x1="903.269" y1="535.897" x2="903.269" y2="743.254" gradientUnits="userSpaceOnUse">
<stop stop-color="white"/>
<stop offset="1" stop-color="white" stop-opacity="0"/>
</linearGradient>
<linearGradient id="paint13_linear" x1="1085.16" y1="532.011" x2="1085.16" y2="591.03" gradientUnits="userSpaceOnUse">
<stop stop-color="#D3D86C"/>
<stop offset="1" stop-color="#82A637"/>
</linearGradient>
<linearGradient id="paint14_linear" x1="991.594" y1="404.877" x2="991.594" y2="512.918" gradientUnits="userSpaceOnUse">
<stop stop-color="#D3D86C"/>
<stop offset="1" stop-color="#82A637"/>
</linearGradient>
<linearGradient id="paint15_linear" x1="1252.88" y1="654.604" x2="1252.88" y2="672.714" gradientUnits="userSpaceOnUse">
<stop stop-color="#D3D86C"/>
<stop offset="1" stop-color="#82A637"/>
</linearGradient>
<linearGradient id="paint16_linear" x1="812.784" y1="569.394" x2="812.784" y2="717.547" gradientUnits="userSpaceOnUse">
<stop stop-color="#D3D86C"/>
<stop offset="1" stop-color="#82A637"/>
</linearGradient>
<linearGradient id="paint17_linear" x1="812.842" y1="605.771" x2="812.842" y2="717.547" gradientUnits="userSpaceOnUse">
<stop stop-color="#084F15" stop-opacity="0"/>
<stop offset="1" stop-color="#084F15"/>
</linearGradient>
<linearGradient id="paint18_linear" x1="787.702" y1="612.158" x2="787.702" y2="717.661" gradientUnits="userSpaceOnUse">
<stop stop-color="#084F15" stop-opacity="0"/>
<stop offset="1" stop-color="#084F15"/>
</linearGradient>
<linearGradient id="paint19_linear" x1="764.787" y1="631.434" x2="764.787" y2="717.547" gradientUnits="userSpaceOnUse">
<stop stop-color="#084F15" stop-opacity="0"/>
<stop offset="1" stop-color="#084F15"/>
</linearGradient>
<linearGradient id="paint20_linear" x1="744.494" y1="660.176" x2="744.494" y2="717.661" gradientUnits="userSpaceOnUse">
<stop stop-color="#084F15" stop-opacity="0"/>
<stop offset="1" stop-color="#084F15"/>
</linearGradient>
<linearGradient id="paint21_linear" x1="723.972" y1="693.481" x2="723.972" y2="717.547" gradientUnits="userSpaceOnUse">
<stop stop-color="#084F15" stop-opacity="0"/>
<stop offset="1" stop-color="#084F15"/>
</linearGradient>
<linearGradient id="paint22_linear" x1="837.866" y1="612.158" x2="837.866" y2="717.661" gradientUnits="userSpaceOnUse">
<stop stop-color="#084F15" stop-opacity="0"/>
<stop offset="1" stop-color="#084F15"/>
</linearGradient>
<linearGradient id="paint23_linear" x1="860.838" y1="631.548" x2="860.838" y2="717.661" gradientUnits="userSpaceOnUse">
<stop stop-color="#084F15" stop-opacity="0"/>
<stop offset="1" stop-color="#084F15"/>
</linearGradient>
<linearGradient id="paint24_linear" x1="881.075" y1="660.176" x2="881.075" y2="717.661" gradientUnits="userSpaceOnUse">
<stop stop-color="#084F15" stop-opacity="0"/>
<stop offset="1" stop-color="#084F15"/>
</linearGradient>
<linearGradient id="paint25_linear" x1="936.197" y1="623.382" x2="936.197" y2="717.661" gradientUnits="userSpaceOnUse">
<stop stop-color="#D3D86C"/>
<stop offset="1" stop-color="#82A637"/>
</linearGradient>
<linearGradient id="paint26_linear" x1="936.31" y1="646.604" x2="936.31" y2="717.661" gradientUnits="userSpaceOnUse">
<stop stop-color="#084F15" stop-opacity="0"/>
<stop offset="1" stop-color="#084F15"/>
</linearGradient>
<linearGradient id="paint27_linear" x1="920.464" y1="650.482" x2="920.464" y2="717.547" gradientUnits="userSpaceOnUse">
<stop stop-color="#084F15" stop-opacity="0"/>
<stop offset="1" stop-color="#084F15"/>
</linearGradient>
<linearGradient id="paint28_linear" x1="905.871" y1="662.914" x2="905.871" y2="717.661" gradientUnits="userSpaceOnUse">
<stop stop-color="#084F15" stop-opacity="0"/>
<stop offset="1" stop-color="#084F15"/>
</linearGradient>
<linearGradient id="paint29_linear" x1="892.931" y1="681.049" x2="892.931" y2="717.547" gradientUnits="userSpaceOnUse">
<stop stop-color="#084F15" stop-opacity="0"/>
<stop offset="1" stop-color="#084F15"/>
</linearGradient>
<linearGradient id="paint30_linear" x1="879.935" y1="702.377" x2="879.935" y2="717.661" gradientUnits="userSpaceOnUse">
<stop stop-color="#084F15" stop-opacity="0"/>
<stop offset="1" stop-color="#084F15"/>
</linearGradient>
<linearGradient id="paint31_linear" x1="952.271" y1="650.71" x2="952.271" y2="717.661" gradientUnits="userSpaceOnUse">
<stop stop-color="#084F15" stop-opacity="0"/>
<stop offset="1" stop-color="#084F15"/>
</linearGradient>
<linearGradient id="paint32_linear" x1="966.865" y1="662.914" x2="966.865" y2="717.661" gradientUnits="userSpaceOnUse">
<stop stop-color="#084F15" stop-opacity="0"/>
<stop offset="1" stop-color="#084F15"/>
</linearGradient>
<linearGradient id="paint33_linear" x1="979.804" y1="681.163" x2="979.804" y2="717.661" gradientUnits="userSpaceOnUse">
<stop stop-color="#084F15" stop-opacity="0"/>
<stop offset="1" stop-color="#084F15"/>
</linearGradient>
<linearGradient id="paint34_linear" x1="992.802" y1="702.377" x2="992.802" y2="717.661" gradientUnits="userSpaceOnUse">
<stop stop-color="#084F15" stop-opacity="0"/>
<stop offset="1" stop-color="#084F15"/>
</linearGradient>
<linearGradient id="paint35_linear" x1="320.869" y1="429.786" x2="320.869" y2="898.717" gradientUnits="userSpaceOnUse">
<stop offset="0.278352" stop-color="#EEEF99"/>
<stop offset="0.76976" stop-color="#B9D079"/>
</linearGradient>
<linearGradient id="paint36_linear" x1="320.869" y1="429.786" x2="320.869" y2="898.717" gradientUnits="userSpaceOnUse">
<stop offset="0.278352" stop-color="#EEEF99"/>
<stop offset="0.76976" stop-color="#B9D079"/>
</linearGradient>
<linearGradient id="paint37_linear" x1="717.755" y1="714.737" x2="717.755" y2="927.053" gradientUnits="userSpaceOnUse">
<stop stop-color="white"/>
<stop offset="1" stop-color="white" stop-opacity="0"/>
</linearGradient>
<linearGradient id="paint38_linear" x1="641.785" y1="651.774" x2="641.785" y2="861.992" gradientUnits="userSpaceOnUse">
<stop offset="0.164151" stop-color="#82A637"/>
<stop offset="0.890649" stop-color="#1B8877"/>
</linearGradient>
<linearGradient id="paint39_linear" x1="57.5841" y1="-95.4676" x2="57.6618" y2="260.265" gradientUnits="userSpaceOnUse">
<stop stop-color="white"/>
<stop offset="1" stop-color="white" stop-opacity="0"/>
</linearGradient>
<linearGradient id="paint40_linear" x1="87.8476" y1="319.444" x2="87.8476" y2="483.638" gradientUnits="userSpaceOnUse">
<stop stop-color="#D3D86C"/>
<stop offset="1" stop-color="#82A637"/>
</linearGradient>
<linearGradient id="paint41_linear" x1="118" y1="647.593" x2="118" y2="802.66" gradientUnits="userSpaceOnUse">
<stop stop-color="#D3D86C"/>
<stop offset="1" stop-color="#82A637"/>
</linearGradient>
<linearGradient id="paint42_linear" x1="211.075" y1="685.397" x2="211.075" y2="956.894" gradientUnits="userSpaceOnUse">
<stop stop-color="#084F15" stop-opacity="0"/>
<stop offset="1" stop-color="#084F15"/>
</linearGradient>
<linearGradient id="paint43_linear" x1="33.0952" y1="639.912" x2="33.0952" y2="774.859" gradientUnits="userSpaceOnUse">
<stop offset="0.422311" stop-color="#2CA77F"/>
<stop offset="1" stop-color="#1B8877"/>
</linearGradient>
<linearGradient id="paint44_linear" x1="893.272" y1="465" x2="893.272" y2="-227" gradientUnits="userSpaceOnUse">
<stop stop-color="#FFEDBA" stop-opacity="0"/>
<stop offset="1" stop-color="#EB2A24"/>
</linearGradient>
<linearGradient id="paint45_linear" x1="975.554" y1="54.4384" x2="975.708" y2="406.438" gradientUnits="userSpaceOnUse">
<stop stop-color="white"/>
<stop offset="1" stop-color="white" stop-opacity="0"/>
</linearGradient>
<linearGradient id="paint46_linear" x1="737.452" y1="382.575" x2="737.565" y2="640.011" gradientUnits="userSpaceOnUse">
<stop stop-color="white"/>
<stop offset="1" stop-color="white" stop-opacity="0"/>
</linearGradient>
<clipPath id="clip0">
<rect width="126.085" height="112.294" fill="white" transform="translate(1189.92 614.706)"/>
</clipPath>
</defs>
</svg>
